<svg width="200" height="139" viewBox="0 0 200 139" fill="none" xmlns="http://www.w3.org/2000/svg">
<path d="M103.467 16.6535C104.764 14.3104 168.53 16.4819 199.143 24.4429C200.665 24.8387 201.641 22.9303 188.528 59.9364C173.174 103.268 168.153 138.201 165.595 138.342C142.175 139.638 85.4587 130.807 67.4767 125.147C65.4809 124.524 64.2051 124.902 64.4462 122.832C65.437 114.325 70.4495 98.4413 76.6243 81.4235L78.311 81.7456L77.9156 82.7108C78.3177 82.6351 68.9777 109.307 66.802 121.637C66.2714 124.635 117.516 133.179 163.896 135.884C164.875 135.941 164.212 135.974 172.793 103.002C185.245 55.1922 200.534 26.6913 196.359 26.125C184.146 24.4745 184.04 22.7577 153.899 20.4061C149.992 20.1009 105.929 16.2356 104.819 18.8461C102.339 24.6739 99.5058 30.3378 96.9563 36.1369L95.2107 34.5339C98.8427 26.09 101.835 19.6049 103.467 16.6535Z" fill="#F8F8FF"/>
<path d="M136.544 90.5108C137.977 90.6392 138.97 93.2034 140.534 97.5265C140.937 98.6392 141.251 100.125 142.2 99.0213C147.198 93.2108 156.716 84.7456 163.315 81.5572C163.526 81.413 163.773 81.3309 164.029 81.3224C164.284 81.313 164.537 81.3782 164.757 81.5087C164.977 81.6382 165.155 81.8287 165.271 82.0572C165.385 82.2856 165.433 82.5424 165.408 82.7961C165.656 86.155 166.008 89.5066 166.072 92.876C166.116 95.2055 161.993 95.3044 139.546 114.862C137.883 116.312 137.805 115.371 134.022 107.891C128.137 96.2602 127.373 95.5455 128.623 94.6171C131.054 92.8792 133.722 91.4971 136.544 90.5108Z" fill="#38A1FF"/>
<path d="M155.008 83.7119C154.614 84.1414 154.082 84.4192 153.506 84.4961C152.928 84.5729 152.342 84.4445 151.85 84.1329C147.25 82.0456 142.061 81.6435 137.195 82.9982C132.328 84.3519 128.093 87.3761 125.232 91.5392C117.425 102.955 121.823 117.36 133.914 122.468C148.59 128.668 166.181 116.339 163.367 98.9949C163.218 98.0792 163.472 98.1676 164.856 97.3244C166.949 104.31 164.699 117.772 151.382 123.77C136.071 130.663 119.104 119.523 119.754 102.874C120.492 83.8761 141.791 74.7414 155.008 83.7119Z" fill="#F8F8FF"/>
<path d="M119.399 33.3863C104.136 32.5315 104.188 33.5147 104.787 31.66C106.609 26.0211 106.63 24.4463 108.882 24.3684C122.001 23.9943 135.129 24.7271 148.125 26.5589C151.421 26.9905 150.831 26.4537 148.44 34.4536C147.78 36.6915 147.558 34.962 119.399 33.3863ZM145.992 33.7747C146.716 33.8726 146.719 33.7389 147.769 30.1252C147.946 29.5168 148.526 28.7705 148.202 28.3484C147.594 27.5516 108.355 24.6474 107.835 26.2137C104.519 36.2031 102.07 27.8621 145.992 33.7747Z" fill="#F8F8FF"/>
<path d="M112.698 53.967C152.088 57.9059 169.55 62.3922 175.823 62.3743C178.08 62.367 176.564 61.7904 175.982 61.5693C165.32 57.5078 112.637 51.2448 101.043 51.71V52.9432C102.934 53.1061 106.392 53.3367 112.698 53.967Z" fill="#F8F8FF"/>
<path d="M178.751 51.8272C173.955 51.7766 162.909 48.9261 125.973 44.682C102.44 41.9778 102.156 42.7799 102.139 41.9104C102.084 39.2094 166.062 46.0967 179.191 50.7893C181.458 51.6009 180.416 51.844 178.751 51.8272Z" fill="#F8F8FF"/>
<path d="M83.1524 107.196C91.993 107.822 100.756 109.265 109.331 111.506C110.506 111.881 110.068 112.166 107.685 119.352C107.334 120.413 107.437 120.394 93.345 117.773C74.9598 114.358 74.7514 116.793 75.903 113.656C78.603 106.3 77.0945 107.196 83.1524 107.196ZM106.088 118.328C106.688 118.466 106.454 118.223 108.229 113.33C108.797 111.762 82.0556 108.662 80.3977 108.488C78.924 108.335 79.5672 108.106 77.3956 113.445C76.6335 115.331 80.5282 112.478 106.088 118.328Z" fill="#F8F8FF"/>
<path d="M124.612 80.3951C125.072 80.5698 125.07 80.873 124.751 81.2066C123.66 82.3519 123.839 82.0719 112.311 80.393C94.1407 77.7456 93.7849 78.3498 88.5576 77.3403C87.8407 77.2014 88.7798 76.273 90.1165 76.314C102.464 76.6909 122.887 79.7382 124.612 80.3951Z" fill="#F8F8FF"/>
<path d="M131.674 66.0487C131.875 65.0351 128.995 64.3687 127.99 64.2235C111.489 61.8322 103.379 61.1557 99.5418 61.1457L99.2148 62.4408C131.598 66.4278 131.425 67.2701 131.674 66.0487Z" fill="#F8F8FF"/>
<path d="M142.789 119.703C148.494 119.795 149.958 117.149 150.625 118.73C150.976 119.561 150.321 119.753 149.782 119.957C135.888 125.201 121.737 113.746 125.036 98.6876C125.169 98.0834 125.563 98.0297 126.024 98.0992C126.6 98.1865 126.355 98.6107 126.285 98.9265C123.754 110.204 132.263 119.534 142.789 119.703Z" fill="#F8F8FF"/>
<path d="M184.55 39.724C182.399 40.6177 169.089 38.1672 167.295 37.804C166.769 37.6987 165.911 37.7977 165.957 36.9914C166.073 34.9524 180.317 38.044 182.895 38.6977C183.555 38.8215 184.145 39.1875 184.55 39.724Z" fill="#F8F8FF"/>
<path d="M150.411 87.2898C150.419 87.7171 149.45 88.2213 148.986 88.0266C146.526 86.9592 143.842 86.5056 141.169 86.7056C137.938 86.9813 134.844 88.1277 132.214 90.0245C131.559 90.394 130.917 90.1234 131.323 89.1277C131.612 88.4161 138.901 82.9582 148.702 86.3361C149.265 86.5287 150.329 86.8782 150.411 87.2898Z" fill="#F8F8FF"/>
<path d="M160.501 100.524C161.033 103.726 160.684 107.013 159.494 110.032C158.303 113.052 156.314 115.691 153.74 117.667C153.293 118.004 152.843 118.327 152.307 117.652C151.396 116.509 154.239 116.473 157.034 111.838C161.321 104.728 157.707 101.929 160.501 100.524Z" fill="#F8F8FF"/>
<path d="M105.801 90.1718C88.3829 87.8424 84.8629 87.9887 84.845 87.2698C84.7976 85.4182 104.902 88.1603 106.712 88.4087C107.165 88.4719 107.825 88.4708 107.887 88.9624C107.995 89.8203 106.633 89.9929 105.801 90.1718Z" fill="#F8F8FF"/>
<path d="M15.055 45.2675C15.1213 45.2275 15.1381 45.2359 15.0939 45.1738C15.0976 45.1916 15.0958 45.21 15.0888 45.2267C15.0819 45.2434 15.0701 45.2576 15.055 45.2675Z" fill="#38A1FF"/>
<path d="M27.4349 51.3425C22.4418 50.9841 17.6212 49.3653 13.4239 46.6372C9.2267 43.9092 5.78988 40.1611 3.43505 35.7437C-9.71222 11.3723 17.5476 -10.5623 40.118 5.47968C55.0736 16.1112 48.6905 27.1006 59.9073 32.7605C60.3631 32.99 60.602 32.8048 60.8946 32.5174C66.203 27.2953 72.8283 24.4343 79.4556 27.6753C81.3008 28.5774 83.0692 30.7279 87.1608 30.7353C108.988 30.7711 105.908 71.7783 84.2376 81.0508C74.8019 85.0856 70.8756 78.5351 64.5536 77.0814C62.5999 76.6319 56.7199 76.2172 53.26 68.674C51.0917 63.6645 50.449 58.1269 51.4126 52.7541C51.4563 52.6266 51.4722 52.4913 51.459 52.3571C51.446 52.223 51.4042 52.0934 51.3366 51.9768C51.269 51.8603 51.1772 51.7596 51.0675 51.6816C50.9576 51.6035 50.8323 51.55 50.7 51.5246C39.6411 47.1394 36.4232 51.9478 27.4349 51.3425ZM20.4634 47.6857C16.1002 42.36 13.956 35.5583 14.476 28.6932C14.5739 27.3964 15.2329 22.7511 16.4897 23.2459C17.0297 23.4564 16.5876 23.9322 16.4897 24.2259C12.4603 36.3184 20.8549 48.0289 22.2444 48.4025C26.2689 49.485 30.4973 49.5655 34.5601 48.6373C22.7244 40.8479 31.2917 15.6365 45.4021 18.0785C46.72 18.3059 46.4905 19.7154 45.1853 19.4164C33.8412 16.8228 25.0307 38.7752 34.578 46.7215C35.0435 47.166 35.6007 47.5034 36.2104 47.7097C36.8201 47.9161 37.4677 47.9867 38.1074 47.9162C42.6516 47.3362 47.1305 47.4668 51.3084 49.6752C52.0589 50.071 51.7568 49.8562 53.2094 45.3699C56.1221 36.3721 59.8683 35.5932 57.8863 34.41C52.8926 31.4279 51.6968 28.6774 49.7558 23.1975C48.9021 20.788 45.8979 12.8196 43.4179 12.1291C34.6117 9.67754 25.7338 11.2028 19.9865 18.0185C17.4602 21.0101 17.7644 22.388 16.6876 21.8322C16.2213 21.5911 16.5992 21.2501 16.7276 21.0143C17.1007 20.282 17.5276 19.5783 18.0044 18.9091C26.7233 7.3544 38.0906 10.3607 42.7579 10.8628C39.8201 7.98387 34.2559 8.02071 30.2917 8.64071C23.5433 9.69334 20.9728 13.3302 19.9528 12.8912C18.8802 12.4291 19.0907 11.5533 19.9328 10.9439C30.5991 3.23759 40.679 8.26177 36.318 5.77547C25.6602 -0.297123 13.9887 2.00497 7.77818 8.77545C-1.95333 19.3806 1.73085 34.6911 11.8655 43.0268C14.8792 45.5047 14.9244 44.7636 15.0508 45.2699C15.6076 44.9542 9.84343 39.3426 10.514 28.5606C11.0245 20.3501 16.7413 12.1586 18.1065 13.7859C18.2577 13.9492 18.3537 14.1558 18.3811 14.3766C18.4084 14.5973 18.3658 14.8212 18.2592 15.0165C17.8897 15.7533 10.575 22.109 12.7045 35.0311C13.4066 39.29 16.415 47.0373 20.4634 47.6804V47.6857ZM100.139 51.7183C100.384 30.3111 82.9808 26.6922 72.0335 43.2647C66.3683 51.8425 63.983 63.9298 68.102 73.0804C76.0293 90.6855 99.8744 74.834 100.139 51.713V51.7183ZM76.9714 28.9143C64.2609 24.9501 51.6589 44.5268 53.2284 60.5267C54.6642 75.1698 63.8431 74.9772 66.3694 75.734C66.6062 75.8056 66.9051 76.0498 67.1062 75.8004C67.2788 75.5835 67.062 75.2877 66.9336 75.0793C63.0073 68.7108 62.3631 56.3162 68.3914 45.132C75.0914 32.6963 82.4682 32.8826 81.1861 31.6206C79.6398 30.0995 78.5545 29.909 76.564 30.8469C72.2483 32.8763 68.9851 36.6363 66.2988 40.4994C57.081 53.753 62.162 69.8846 60.7525 70.1141C59.7104 70.2825 57.7799 61.1803 58.9631 54.1709C60.8862 42.8363 67.5809 33.869 74.0598 30.3058C74.9493 29.8174 75.9398 29.5385 76.9714 28.9143Z" fill="#38A1FF"/>
<path d="M94.8955 52.2301C94.9576 52.7174 94.8502 52.5248 88.3208 62.2595C83.0576 70.1109 83.3029 72.8425 81.8092 70.3983C74.3714 58.2248 74.0398 58.4732 75.0545 57.3364C76.123 56.2102 77.2773 55.1688 78.5071 54.2216C80.3366 52.7185 81.9682 58.889 82.6976 58.9342C82.8029 58.9405 91.7144 42.8817 92.8902 46.0533C93.7244 48.0546 94.3949 50.1203 94.8955 52.2301Z" fill="#38A1FF"/>
<path d="M96.688 50.6211C96.7796 42.998 92.1185 36.3212 84.8449 39.3517C84.3747 39.6596 83.8097 39.7892 83.2523 39.717C79.8134 38.7696 92.3523 32.3865 96.8091 43.3359C102.009 56.1095 91.7081 76.3645 80.4514 77.874C66.5399 79.7382 64.5282 54.5801 79.0355 41.0086C79.6481 40.4359 80.4976 40.4338 80.807 41.1086C81.2723 42.1212 79.5565 41.9865 76.345 46.7675C66.345 61.6516 70.9134 78.6677 81.0681 76.1361C89.8428 73.9425 96.5522 61.8074 96.688 50.6211Z" fill="#38A1FF"/>
</svg>
