<svg width="177" height="191" viewBox="0 0 177 191" fill="none" xmlns="http://www.w3.org/2000/svg">
<path d="M103.501 112.743C102.98 110.898 102.039 109.223 101.77 107.401C101.738 107.174 101.621 106.968 101.444 106.823C101.268 106.677 101.043 106.603 100.814 106.615C98.2911 106.74 96.2711 107.381 93.8371 107.694C93.6287 107.721 93.4357 107.818 93.2902 107.97C93.1447 108.122 93.0554 108.319 93.0371 108.528C92.8051 111.21 92.5371 113.584 92.1231 116.393C91.0291 118.033 84.0021 127.193 80.8471 133.174C80.7406 133.375 80.7156 133.61 80.7774 133.829C80.8392 134.049 80.9831 134.236 81.1791 134.352C82.7551 135.269 84.1371 135.839 85.6341 136.604C85.7709 137.88 85.793 139.165 85.7001 140.445C85.6904 140.548 85.7022 140.652 85.7348 140.75C85.7673 140.848 85.8198 140.939 85.8891 141.016C85.9584 141.093 86.0429 141.154 86.1372 141.197C86.2315 141.239 86.3336 141.262 86.4371 141.263C88.4441 141.202 90.4518 141.353 92.4271 141.713C92.4504 141.829 92.5105 141.934 92.5984 142.012C92.6863 142.091 92.7973 142.139 92.9149 142.15C93.0324 142.16 93.1502 142.132 93.2506 142.07C93.3511 142.009 93.4288 141.916 93.4721 141.806C93.5623 141.758 93.6387 141.688 93.694 141.602C93.7494 141.516 93.782 141.417 93.7886 141.315C93.7952 141.213 93.7756 141.111 93.7318 141.019C93.688 140.927 93.6213 140.847 93.5381 140.788C93.8041 135.088 96.3031 121.33 97.0051 118.524C99.1361 116.779 100.976 115.591 103.215 113.689C103.348 113.575 103.445 113.425 103.496 113.258C103.547 113.09 103.549 112.911 103.501 112.743Z" fill="#38A1FF"/>
<path d="M133.45 80.4679C130.458 86.1029 125.05 86.8829 121.079 88.9239C119.423 89.7213 117.95 90.8539 116.754 92.2501C115.559 93.6464 114.666 95.2757 114.133 97.0349C113.216 100.03 113.37 102.223 113.647 105.29C113.658 105.448 113.73 105.595 113.849 105.7C113.967 105.804 114.122 105.858 114.28 105.849C114.438 105.838 114.585 105.766 114.689 105.648C114.794 105.529 114.848 105.375 114.839 105.217C114.754 102.132 115.281 99.0615 116.39 96.1819C120.49 87.2649 130.743 90.9329 134.45 80.9139C134.509 80.7813 134.513 80.6307 134.461 80.4951C134.409 80.3595 134.306 80.2501 134.173 80.1909C134.04 80.1318 133.89 80.1278 133.754 80.1797C133.619 80.2316 133.509 80.3353 133.45 80.4679Z" fill="#F8F8FF"/>
<path d="M134.634 84.7159C133.349 86.4999 131.264 88.0329 131.876 88.7879C132.287 89.3029 133.417 88.5589 133.922 88.1809C135.608 86.7739 136.902 84.9551 137.678 82.9009C137.796 82.4459 138.078 80.9639 137.41 80.8009C136.583 80.5979 136.195 82.5579 134.634 84.7159Z" fill="#F8F8FF"/>
<path d="M137.391 85.6709C136.461 86.9029 134.427 88.5939 135.091 89.3329C135.481 89.7659 136.023 89.4009 136.804 88.8989C138.309 87.7118 139.485 86.1601 140.222 84.3909C140.353 83.9459 140.61 82.5739 139.981 82.3909C139.172 82.1559 138.747 83.8659 137.391 85.6709Z" fill="#F8F8FF"/>
<path d="M128.042 100.167L127.731 103.408C127.731 103.567 127.668 103.72 127.555 103.832C127.443 103.945 127.29 104.008 127.131 104.008C126.972 104.008 126.819 103.945 126.707 103.832C126.594 103.72 126.531 103.567 126.531 103.408C126.397 102.137 126.332 100.859 126.336 99.5809C126.345 99.4356 126.389 99.2948 126.466 99.1709C126.542 99.047 126.648 98.9439 126.774 98.8709C130.562 96.6469 137.98 90.4589 140.687 86.4039C140.721 86.3407 140.767 86.2848 140.823 86.2393C140.878 86.1939 140.942 86.1598 141.011 86.139C141.079 86.1183 141.151 86.1112 141.223 86.1183C141.294 86.1255 141.363 86.1465 141.427 86.1804C141.49 86.2143 141.546 86.2603 141.591 86.3158C141.637 86.3713 141.671 86.4352 141.692 86.5039C141.712 86.5726 141.719 86.6446 141.712 86.716C141.705 86.7874 141.684 86.8567 141.65 86.9199C141.089 88.3418 140.303 89.6645 139.323 90.8379C135.994 94.4353 132.2 97.5726 128.042 100.167Z" fill="#F8F8FF"/>
<path d="M113.48 89.5539C113.826 88.8533 114.232 88.1841 114.694 87.5539C116.918 84.3829 120.017 82.8989 123.873 82.4079C124.656 82.2934 125.446 82.2305 126.237 82.2199C126.343 82.2282 126.448 82.1939 126.529 82.1247C126.61 82.0555 126.66 81.957 126.668 81.8509C126.676 81.7448 126.642 81.6398 126.573 81.559C126.504 81.4782 126.405 81.4282 126.299 81.4199C120.655 80.5639 114.185 83.7199 112.79 89.3089C112.774 89.3542 112.767 89.4023 112.769 89.4503C112.772 89.4983 112.784 89.5454 112.805 89.5888C112.825 89.6322 112.854 89.6711 112.89 89.7033C112.926 89.7355 112.967 89.7604 113.013 89.7764C113.058 89.7925 113.106 89.7995 113.154 89.7971C113.202 89.7946 113.249 89.7827 113.292 89.762C113.336 89.7414 113.375 89.7123 113.407 89.6766C113.439 89.6409 113.464 89.5992 113.48 89.5539Z" fill="#F8F8FF"/>
<path d="M106.383 85.1129C107.022 86.6259 107.075 88.859 107.973 88.828C108.934 88.792 108.91 86.457 108.073 84.408C107.734 83.5306 107.21 82.7365 106.537 82.08C106.131 81.753 105.078 81.102 104.695 81.594C104.198 82.233 105.595 83.2559 106.383 85.1129Z" fill="#F8F8FF"/>
<path d="M118.662 68.807C117.973 69.2404 117.248 69.6148 116.495 69.926C114.365 70.909 113.059 71.539 112.109 71.91C110.142 72.688 106.399 73.132 106.866 76.898C107.091 78.0489 107.657 79.1055 108.491 79.93C108.536 79.9933 108.593 80.0472 108.659 80.0886C108.724 80.13 108.797 80.158 108.874 80.1711C108.95 80.1842 109.029 80.1821 109.104 80.1649C109.18 80.1477 109.252 80.1158 109.315 80.071C109.378 80.0261 109.432 79.9692 109.474 79.9035C109.515 79.8379 109.543 79.7647 109.556 79.6882C109.569 79.6116 109.567 79.5333 109.55 79.4576C109.533 79.3819 109.501 79.3103 109.456 79.247C109.003 78.4725 108.714 77.613 108.607 76.722C108.438 74.47 110.655 74.44 112.778 73.608C114.515 72.9008 116.194 72.0578 117.798 71.087C118.388 70.66 118.925 70.1642 119.398 69.61C119.495 69.5107 119.551 69.3781 119.553 69.2393C119.555 69.1005 119.504 68.966 119.411 68.8636C119.317 68.7611 119.188 68.6985 119.049 68.6885C118.911 68.6786 118.774 68.722 118.666 68.81L118.662 68.807Z" fill="#F8F8FF"/>
<path d="M125.692 67.7339C125.806 67.8399 126.238 68.3189 126.439 68.4849C127.059 68.9395 127.633 69.455 128.15 70.0239C128.645 70.6381 129.107 71.2776 129.535 71.9399C129.749 72.2399 130.006 72.4679 130.235 72.7639C130.266 72.8361 130.311 72.9015 130.368 72.9561C130.424 73.0107 130.491 73.0534 130.565 73.0819C130.638 73.1104 130.716 73.1239 130.795 73.1218C130.873 73.1197 130.951 73.102 131.022 73.0696C131.094 73.0373 131.159 72.991 131.212 72.9334C131.266 72.8759 131.307 72.8082 131.335 72.7344C131.362 72.6606 131.374 72.5822 131.37 72.5036C131.367 72.4251 131.348 72.348 131.314 72.2769C131.125 70.9537 130.494 69.7332 129.525 68.8129C128.914 68.0886 128.172 67.4861 127.337 67.0369C126.956 66.8814 126.553 66.784 126.143 66.7479C126.078 66.7183 126.008 66.7017 125.937 66.6991C125.866 66.6966 125.795 66.708 125.728 66.7329C125.662 66.7577 125.601 66.7954 125.548 66.8439C125.496 66.8924 125.454 66.9507 125.425 67.0154C125.395 67.0802 125.378 67.1501 125.376 67.2212C125.373 67.2924 125.385 67.3633 125.41 67.4301C125.434 67.4968 125.472 67.558 125.521 67.6101C125.569 67.6622 125.627 67.7043 125.692 67.7339Z" fill="#F8F8FF"/>
<path d="M121.607 73.5569C121.989 74.0678 122.406 74.5522 122.853 75.0069C123.378 75.6169 124.538 77.3269 125.292 76.8569C126.447 76.1269 123.656 72.9349 122.851 72.4469C122.6 72.2929 121.645 71.8089 121.297 72.2049C121.033 72.5159 121.207 72.8789 121.607 73.5569Z" fill="#F8F8FF"/>
<path d="M122.061 63.3729C121.365 62.3815 120.391 61.6187 119.261 61.1809L119.367 61.1039C119.485 61.0211 119.567 60.8952 119.594 60.7532C119.621 60.6112 119.591 60.4644 119.511 60.3439C119.471 60.2845 119.419 60.2336 119.359 60.1942C119.299 60.1548 119.232 60.1275 119.162 60.1141C119.091 60.1006 119.019 60.1012 118.948 60.1157C118.878 60.1303 118.811 60.1586 118.752 60.1989C109.94 65.4989 104.314 72.0849 101.444 78.1809C99.9341 81.3979 98.7071 85.0979 99.5071 88.5449C100.159 91.3449 101.986 93.1449 103.016 94.6639L101.56 97.0489C101.506 97.1141 101.466 97.1901 101.443 97.2719C101.42 97.3538 101.414 97.4395 101.427 97.5235C101.44 97.6075 101.47 97.6879 101.516 97.7593C101.562 97.8306 101.623 97.8914 101.694 97.9376C101.766 97.9837 101.846 98.0142 101.93 98.027C102.014 98.0398 102.1 98.0346 102.182 98.0117C102.264 97.9889 102.34 97.9489 102.405 97.8945C102.47 97.84 102.523 97.7724 102.56 97.6959L103.96 95.7959C104.863 96.7798 105.865 97.6675 106.951 98.4449C107.478 98.8129 108.734 99.5809 109.162 99.0159C110.09 97.7729 104.976 95.5889 102.229 90.5609C101.792 89.8058 101.464 88.9928 101.254 88.1459C100.584 85.1369 101.801 81.7389 103.109 78.9649C105.39 74.4311 108.522 70.3792 112.336 67.0309C112.528 67.3899 112.918 67.5969 113.542 68.1439C113.642 68.2329 115.217 69.9269 115.916 69.2989C116.348 68.9159 115.822 67.9269 115.665 67.7119C115.078 66.996 114.374 66.3839 113.584 65.9009C114.65 64.9449 116.284 63.5509 117.912 62.2259C118.129 62.4421 118.363 62.6404 118.612 62.8189C119.381 63.2391 120.079 63.7765 120.682 64.4119C121.336 64.9669 121.739 65.2119 122.109 64.9829C122.625 64.6609 122.13 63.5079 122.061 63.3729Z" fill="#F8F8FF"/>
<path d="M100.299 108.412C97.9201 108.66 95.3261 109.075 92.9161 109.568C91.7238 109.737 90.5484 110.008 89.4031 110.38C89.2271 110.45 89.0337 110.464 88.8495 110.419C88.6653 110.375 88.4994 110.275 88.3746 110.132C88.2497 109.99 88.1721 109.812 88.1523 109.624C88.1325 109.435 88.1716 109.245 88.2641 109.08C91.7021 103.08 92.5001 101.06 95.6841 96.9019C95.7669 96.7859 95.8917 96.7068 96.0319 96.6814C96.1722 96.656 96.3168 96.6863 96.435 96.766C96.5532 96.8456 96.6357 96.9682 96.6648 97.1077C96.694 97.2472 96.6675 97.3926 96.5911 97.5129C95.8041 98.8509 94.8911 100.606 90.9231 108.074C94.1992 107.372 97.512 106.854 100.846 106.524C101.05 106.506 101.254 106.556 101.426 106.667C101.598 106.779 101.727 106.944 101.794 107.138C102.962 110.253 103.924 113.441 104.674 116.682C105.029 116.36 105.398 116.052 105.751 115.725C105.803 115.659 105.868 115.604 105.943 115.564C106.017 115.525 106.099 115.502 106.183 115.496C106.267 115.49 106.352 115.502 106.431 115.531C106.51 115.56 106.582 115.606 106.642 115.665C106.703 115.723 106.75 115.794 106.781 115.872C106.812 115.951 106.827 116.035 106.823 116.119C106.82 116.203 106.799 116.285 106.761 116.361C106.724 116.436 106.671 116.503 106.606 116.557C105.956 117.199 105.366 117.9 104.845 118.651C104.764 118.772 104.65 118.866 104.516 118.922C104.382 118.979 104.234 118.994 104.091 118.967C103.949 118.941 103.817 118.872 103.712 118.771C103.608 118.67 103.536 118.541 103.504 118.399C102.973 116.166 101.051 110.573 100.299 108.412Z" fill="#F8F8FF"/>
<path d="M72.3571 132.761C71.5329 133.857 70.8184 135.031 70.2241 136.267C68.9347 139.201 68.1222 142.322 67.8171 145.512C67.2258 150.051 67.7464 154.665 69.3341 158.958C69.3488 159.041 69.3808 159.119 69.4279 159.189C69.475 159.259 69.5362 159.318 69.6075 159.362C69.6788 159.406 69.7587 159.435 69.8419 159.447C69.9252 159.459 70.0099 159.453 70.0907 159.429C70.1715 159.406 70.2464 159.366 70.3108 159.312C70.3751 159.258 70.4274 159.191 70.4642 159.116C70.501 159.04 70.5215 158.958 70.5244 158.874C70.5273 158.79 70.5126 158.706 70.4811 158.628C70.2061 157.354 70.0471 156.061 69.8811 154.756C68.915 148.75 69.5812 142.596 71.8101 136.936C72.1411 136.058 72.7011 134.551 73.2981 133.326C73.3704 133.202 73.3909 133.054 73.3552 132.914C73.3194 132.775 73.2302 132.655 73.1069 132.581C72.9836 132.507 72.836 132.484 72.6961 132.518C72.5562 132.551 72.4351 132.639 72.3591 132.761H72.3571Z" fill="#F8F8FF"/>
<path d="M76.1331 152.569C76.1507 152.421 76.2228 152.285 76.3354 152.187C76.448 152.089 76.593 152.037 76.7421 152.04C77.1021 151.994 77.4677 152.024 77.8156 152.127C78.1636 152.23 78.4863 152.404 78.7633 152.638C79.0403 152.873 79.2654 153.162 79.4245 153.488C79.5835 153.815 79.673 154.17 79.6871 154.533C80.0721 158.222 74.6951 159.182 74.0001 155.675C73.9164 155.346 73.9005 155.004 73.9534 154.669C74.0062 154.334 74.1266 154.013 74.3074 153.726C74.4881 153.439 74.7253 153.192 75.0047 152.999C75.284 152.807 75.5995 152.674 75.9321 152.607C75.9962 152.582 76.0643 152.569 76.1331 152.569ZM76.6681 153.231C76.5631 153.722 76.1311 153.417 75.7841 154.431C75.7065 154.707 75.6986 154.997 75.7611 155.277C76.0611 156.502 77.9951 156.093 77.8871 154.686C77.8688 154.344 77.7401 154.018 77.5203 153.755C77.3004 153.493 77.0014 153.309 76.6681 153.231Z" fill="#F8F8FF"/>
<path d="M101.371 153.28C101.736 153.228 102.695 153.141 103.145 153.069C106.292 152.575 107.606 152.41 111.045 153.361C111.603 153.515 112.166 153.618 112.737 153.817C112.875 153.872 113.029 153.873 113.168 153.822C113.307 153.77 113.422 153.668 113.491 153.536C113.559 153.404 113.576 153.252 113.539 153.108C113.502 152.964 113.412 152.84 113.288 152.758C111.538 151.435 109.386 150.755 107.194 150.832C105.685 150.781 104.179 150.974 102.731 151.402C102.128 151.623 101.55 151.907 101.006 152.249C100.938 152.273 100.876 152.31 100.823 152.358C100.769 152.407 100.726 152.465 100.695 152.53C100.664 152.595 100.647 152.665 100.643 152.737C100.639 152.808 100.65 152.88 100.674 152.948C100.698 153.016 100.735 153.078 100.784 153.131C100.832 153.185 100.89 153.228 100.955 153.259C101.02 153.29 101.09 153.307 101.162 153.311C101.234 153.315 101.305 153.304 101.373 153.28H101.371Z" fill="#F8F8FF"/>
<path d="M102.483 148.314C102.695 148.346 103.592 148.509 104.149 148.548C105.406 148.566 106.661 148.651 107.909 148.801C109.129 149.01 110.333 149.309 111.509 149.695C112.024 149.848 112.548 149.939 113.094 150.111C113.233 150.164 113.388 150.164 113.527 150.11C113.666 150.056 113.78 149.952 113.846 149.819C113.913 149.685 113.927 149.531 113.887 149.388C113.846 149.244 113.754 149.121 113.627 149.042C112.049 147.836 110.154 147.118 108.173 146.974C106.826 146.775 105.462 146.726 104.104 146.829C103.531 146.916 102.965 147.047 102.412 147.222C102.267 147.231 102.132 147.298 102.037 147.407C101.941 147.516 101.893 147.659 101.902 147.804C101.912 147.949 101.978 148.084 102.087 148.179C102.197 148.275 102.338 148.323 102.483 148.314Z" fill="#F8F8FF"/>
<path d="M85.0201 158.698C92.5201 160.385 99.3811 157.715 107.802 157.389C109.533 157.291 111.269 157.362 112.986 157.599C113.133 157.62 113.283 157.585 113.406 157.502C113.529 157.419 113.617 157.293 113.652 157.149C113.688 157.004 113.669 156.852 113.598 156.721C113.528 156.59 113.412 156.49 113.272 156.44C106.577 154.34 99.5661 156.997 89.9411 157.519C88.3547 157.639 86.763 157.672 85.1731 157.619C85.031 157.602 84.8879 157.641 84.7745 157.728C84.6611 157.816 84.5864 157.944 84.5664 158.086C84.5464 158.227 84.5827 158.371 84.6675 158.486C84.7523 158.602 84.8789 158.679 85.0201 158.702V158.698Z" fill="#F8F8FF"/>
<path d="M143.826 155.198C143.294 150.49 141.826 132.377 139.481 122.946C138.412 118.655 136.798 114.872 132.353 114.267C132.038 111.684 131.307 107.51 131.078 105.236C131.055 105.009 130.949 104.799 130.78 104.645C130.611 104.492 130.392 104.406 130.164 104.405C124.922 104.374 114.174 105.376 110.03 108.793C107.515 110.869 107.788 113.033 108.864 120.044C103.502 126.107 106.183 135.578 106.387 142.783C98.0061 142.335 93.6091 140.368 86.9971 140.598C87.0671 138.921 87.0631 137.258 86.9721 135.633C86.9642 135.476 86.9133 135.325 86.8251 135.195C86.737 135.066 86.6148 134.963 86.4721 134.898C78.8247 131.648 70.8049 129.355 62.5951 128.073C63.0781 127.501 63.6081 126.565 64.0631 125.881C64.6331 125.023 66.7961 122.206 65.9751 121.593C65.5511 121.276 64.5951 122.116 64.2541 122.478C63.0876 123.929 62.0551 125.483 61.1691 127.121C61.0752 127.338 60.9973 127.562 60.9361 127.79C58.7281 127.422 56.5201 127.09 54.3211 126.782C51.7551 126.421 49.0641 126.358 46.5371 125.93C46.4665 125.917 46.3939 125.918 46.3236 125.933C46.2533 125.948 46.1866 125.976 46.1274 126.017C46.0682 126.057 46.0175 126.109 45.9783 126.17C45.9392 126.23 45.9123 126.297 45.8991 126.368C45.886 126.439 45.8869 126.511 45.9018 126.581C45.9167 126.652 45.9453 126.718 45.986 126.778C46.0267 126.837 46.0786 126.888 46.1388 126.927C46.1991 126.966 46.2665 126.993 46.3371 127.006C48.7041 127.453 69.5131 129.134 85.2771 136.247C85.3666 141.976 84.7646 147.695 83.4841 153.28C82.9691 155.713 82.3181 158.485 80.1541 159.696C78.6771 160.524 76.3841 159.696 74.4811 159.371C70.7291 158.734 71.4501 160.024 61.6071 162.871C58.4181 163.795 55.1731 164.512 51.8921 165.02C30.1051 168.378 16.3221 152.641 22.5041 131.43C24.7692 123.286 28.9206 115.79 34.6221 109.549C49.7751 93.4149 80.6851 83.9979 98.8671 97.4979C96.4671 104.621 102.922 111.292 111.51 105.723C111.585 105.685 111.651 105.632 111.704 105.567C111.757 105.502 111.795 105.427 111.817 105.346C111.839 105.265 111.844 105.181 111.832 105.098C111.819 105.015 111.79 104.936 111.745 104.865C111.7 104.795 111.64 104.734 111.57 104.688C111.501 104.642 111.422 104.61 111.339 104.596C111.257 104.582 111.172 104.586 111.091 104.606C111.01 104.627 110.934 104.664 110.868 104.716C109.02 106.044 106.752 106.654 104.487 106.432C100.333 105.76 98.8681 101.274 100.445 97.5239C100.508 97.3729 100.519 97.2055 100.477 97.0475C100.435 96.8894 100.343 96.7494 100.214 96.6489C81.2141 81.7409 49.0661 91.5289 33.2911 108.291C27.3896 114.74 23.0899 122.489 20.7401 130.909C14.1791 153.384 29.0291 170.402 52.1731 166.826C58.8874 165.761 65.447 163.883 71.7071 161.232C74.6731 160 80.1561 164.815 83.6371 158.581C84.4125 157.024 84.9518 155.361 85.2371 153.645C86.0859 149.731 86.6541 145.762 86.9371 141.767C90.9041 142.307 99.9001 144.267 105.157 144.544C107.657 144.674 111.681 144.702 113.415 146.337C113.466 146.403 113.53 146.459 113.603 146.499C113.677 146.539 113.758 146.564 113.841 146.571C113.924 146.578 114.008 146.567 114.087 146.54C114.167 146.513 114.239 146.469 114.3 146.412C114.362 146.355 114.41 146.286 114.443 146.209C114.476 146.132 114.493 146.05 114.492 145.966C114.491 145.882 114.473 145.8 114.438 145.724C114.403 145.647 114.353 145.579 114.29 145.524C112.701 143.567 109.99 143.039 107.49 142.849C107.468 135.249 105.527 125.995 110.458 120.949C111.052 120.342 110.443 119.791 110.014 115.11C109.879 114.053 109.879 112.983 110.014 111.926C110.157 111.454 110.393 111.016 110.709 110.638C111.025 110.26 111.414 109.95 111.853 109.726C115.827 107.183 124.609 106.319 129.338 106.251C129.627 108.651 130.374 112.892 130.611 115.201C130.634 115.42 130.734 115.623 130.893 115.774C131.053 115.925 131.262 116.014 131.481 116.024C135.474 116.209 136.738 119.487 137.718 123.383C138.327 125.8 138.918 129.163 139.492 132.864C139.939 135.744 142.205 152.008 142.64 155.337C142.671 155.484 142.756 155.614 142.878 155.702C143 155.79 143.151 155.828 143.3 155.81C143.449 155.792 143.586 155.719 143.684 155.604C143.781 155.49 143.833 155.343 143.827 155.193L143.826 155.198Z" fill="#F8F8FF"/>
<path d="M134.092 111.377C139.616 114.467 143.308 120.128 145.592 126.113C150.442 138.828 150.297 157.643 147.769 165.859C147.089 168.225 145.943 170.432 144.399 172.35C137.96 180.075 122.855 179.828 115.661 172.926C112.228 169.634 110.541 165.153 109.31 160.538C109.26 160.397 109.158 160.28 109.026 160.209C108.893 160.139 108.739 160.121 108.594 160.159C108.449 160.196 108.323 160.287 108.242 160.413C108.16 160.538 108.128 160.69 108.153 160.838C109.394 165.826 110.809 170.421 114.496 174.117C122.27 181.91 138.702 182.039 145.81 173.528C147.513 171.425 148.777 169.002 149.53 166.403C152.206 157.717 152.323 138.296 147.224 125.479C144.682 119.089 140.734 113.679 134.616 110.418C134.553 110.384 134.484 110.362 134.412 110.354C134.341 110.347 134.269 110.353 134.2 110.373C134.131 110.394 134.066 110.427 134.01 110.472C133.955 110.518 133.908 110.573 133.874 110.636C133.839 110.7 133.818 110.769 133.81 110.84C133.802 110.912 133.809 110.984 133.829 111.053C133.849 111.122 133.883 111.186 133.928 111.242C133.973 111.298 134.029 111.345 134.092 111.379V111.377Z" fill="#F8F8FF"/>
<path d="M114.907 119.983C115.947 119.914 116.98 119.766 117.997 119.541C127.878 117.403 127.764 117.175 129.362 116.55C129.503 116.5 129.62 116.398 129.691 116.266C129.761 116.133 129.779 115.979 129.741 115.834C129.704 115.689 129.613 115.563 129.487 115.482C129.362 115.4 129.21 115.368 129.062 115.393C128.436 115.473 127.82 115.521 127.196 115.616C125.751 115.84 120.919 116.962 118.87 117.472C117.394 117.767 115.964 118.257 114.616 118.928C114.545 118.945 114.478 118.977 114.42 119.02C114.361 119.064 114.312 119.119 114.275 119.182C114.237 119.245 114.213 119.314 114.204 119.387C114.194 119.459 114.199 119.533 114.218 119.603C114.237 119.674 114.271 119.74 114.316 119.797C114.361 119.855 114.417 119.903 114.481 119.938C114.545 119.973 114.615 119.996 114.688 120.003C114.761 120.011 114.834 120.004 114.904 119.983H114.907Z" fill="#F8F8FF"/>
<path d="M115.584 110.698C115.654 110.651 115.732 110.62 115.815 110.606C115.897 110.591 115.982 110.595 116.063 110.615C116.429 110.646 116.781 110.768 117.087 110.97C117.393 111.172 117.644 111.447 117.817 111.771C118.013 112.161 118.113 112.593 118.108 113.029C118.102 113.466 117.993 113.895 117.788 114.28C117.583 114.666 117.289 114.997 116.93 115.245C116.57 115.493 116.157 115.652 115.724 115.708C115.314 115.745 114.901 115.683 114.52 115.527C114.139 115.372 113.801 115.127 113.534 114.813C113.267 114.5 113.079 114.127 112.987 113.725C112.894 113.324 112.899 112.907 113.001 112.508C113.103 112.174 113.276 111.866 113.509 111.606C113.742 111.346 114.029 111.14 114.35 111.002C114.662 110.863 114.992 110.769 115.331 110.724C115.412 110.695 115.499 110.686 115.584 110.698ZM115.705 111.752C115.49 111.901 115.297 112.078 115.131 112.28C115.049 112.384 114.974 112.492 114.904 112.604C114.816 112.727 114.754 112.866 114.721 113.013C114.711 113.122 114.724 113.233 114.759 113.337C114.793 113.441 114.849 113.537 114.923 113.618C114.997 113.699 115.087 113.764 115.187 113.809C115.288 113.853 115.396 113.877 115.506 113.877C115.645 113.853 115.777 113.799 115.893 113.72C116.01 113.641 116.108 113.538 116.182 113.418C116.255 113.298 116.302 113.164 116.32 113.024C116.338 112.884 116.325 112.743 116.284 112.608C116.27 112.52 116.25 112.433 116.223 112.348C116.085 112.045 116.013 111.88 115.707 111.754L115.705 111.752Z" fill="#F8F8FF"/>
<path d="M3.4201 156.198C5.1411 156.314 15.3401 156.459 17.3551 156.357C19.6841 156.238 20.3751 156.241 20.3911 155.577C20.4071 154.913 19.6421 154.833 16.9181 154.653C14.5721 154.497 4.3851 154.44 3.4451 154.48C0.575103 154.6 0.00510304 154.741 0.000103038 155.289C-0.013897 155.987 1.4001 156.064 3.4201 156.198Z" fill="#F8F8FF"/>
<path d="M153.734 155.18C155.734 155.209 155.661 155.305 158.379 155.203C174.124 154.618 172.007 154.718 175.849 154.19C175.933 154.194 176.017 154.18 176.095 154.15C176.173 154.119 176.244 154.073 176.303 154.013C176.362 153.954 176.408 153.883 176.438 153.804C176.468 153.726 176.481 153.642 176.477 153.558C176.472 153.474 176.45 153.392 176.412 153.317C176.374 153.243 176.32 153.177 176.255 153.124C176.19 153.071 176.114 153.033 176.033 153.011C175.952 152.989 175.867 152.985 175.784 152.998C173.808 152.942 173.697 152.862 171.136 152.917C157.652 153.208 156.325 153.556 153.642 154.09C153.57 154.095 153.499 154.114 153.434 154.147C153.369 154.179 153.312 154.225 153.265 154.28C153.217 154.335 153.182 154.399 153.159 154.468C153.137 154.537 153.129 154.609 153.135 154.682C153.141 154.754 153.161 154.824 153.195 154.889C153.228 154.953 153.274 155.01 153.33 155.056C153.386 155.103 153.45 155.137 153.52 155.159C153.589 155.18 153.662 155.187 153.734 155.18Z" fill="#F8F8FF"/>
<path d="M70.1441 8.71092C70.2882 9.53626 70.686 10.2962 71.2821 10.8849C71.5221 11.1099 71.8051 11.2779 72.0951 11.1179C72.3851 10.9579 72.3871 10.6289 72.3271 10.3059C72.1656 9.47323 71.7302 8.7185 71.0901 8.16192C70.8521 7.97692 70.6031 7.81292 70.3441 7.96192C70.0851 8.11092 70.0911 8.41492 70.1441 8.71092Z" fill="#F8F8FF"/>
<path d="M80.6351 11.0259C81.211 10.2693 81.5854 9.37881 81.7231 8.43793C81.7601 8.11093 81.7111 7.78293 81.4071 7.65393C81.1031 7.52493 80.8311 7.71293 80.6231 7.96793C80.0265 8.73904 79.6728 9.67021 79.6071 10.6429C79.5941 10.9429 79.6451 11.2429 79.9271 11.3429C80.2091 11.4429 80.4461 11.2619 80.6351 11.0259Z" fill="#F8F8FF"/>
<path d="M87.4741 16.3979C88.2004 16.2528 88.8678 15.897 89.3931 15.3749C89.6251 15.1429 89.8181 14.8749 89.6771 14.5749C89.5361 14.2749 89.2091 14.2539 88.8831 14.2899C88.4887 14.3406 88.1087 14.4711 87.7664 14.6734C87.4241 14.8758 87.1266 15.1458 86.8921 15.4669C86.7131 15.7089 86.5611 15.9669 86.7221 16.2209C86.8831 16.4749 87.1791 16.4529 87.4741 16.3979Z" fill="#F8F8FF"/>
<path d="M87.7601 25.7839C87.9 25.8481 88.0577 25.862 88.2066 25.8232C88.3555 25.7843 88.4864 25.6952 88.5771 25.5709C89.1161 24.6469 86.4411 23.4779 85.3351 23.2709C85.0351 23.2159 84.7351 23.2239 84.5931 23.4899C84.1261 24.3459 86.7781 25.5069 87.7601 25.7839Z" fill="#F8F8FF"/>
<path d="M79.4321 28.3679C79.3994 28.7487 79.4436 29.1322 79.5622 29.4955C79.6807 29.8589 79.8711 30.1947 80.1221 30.4829C80.3471 30.7239 80.6041 30.9269 80.9081 30.7959C81.2121 30.6649 81.2351 30.3409 81.2191 30.0119C81.2034 29.2863 80.9397 28.588 80.4721 28.0329C80.2791 27.8019 80.0721 27.5869 79.7841 27.6799C79.4961 27.7729 79.4531 28.0669 79.4321 28.3679Z" fill="#F8F8FF"/>
<path d="M69.1841 18.4509C65.4321 18.2139 61.5551 17.7829 56.5091 17.8939C53.0091 17.9699 49.4981 17.7339 46.9391 20.2849C45.6741 21.5429 45.4831 23.3009 45.3581 25.0849C45.2236 27.9323 45.2754 30.7854 45.5131 33.6259C45.6361 35.6189 45.9781 37.5539 47.4361 38.9439C49.1831 40.6079 51.7251 40.4439 54.0441 40.4529C58.9121 40.4689 63.6531 40.0959 68.8441 39.8249C71.1711 39.7029 73.8821 39.7969 75.6031 38.0249C77.9941 35.5639 76.7721 31.9689 76.5781 29.2249C76.5558 29.0769 76.479 28.9425 76.3627 28.8483C76.2464 28.754 76.0991 28.7065 75.9497 28.7153C75.8002 28.7241 75.6594 28.7884 75.555 28.8956C75.4505 29.0029 75.39 29.1453 75.3851 29.2949C75.5011 31.8949 76.2791 35.1499 74.4621 36.8699C73.1621 38.1089 70.5381 37.9699 68.7621 38.0439C64.0111 38.2439 58.9621 38.6439 54.0531 38.6159C52.3311 38.6089 49.9531 38.7939 48.7121 37.6069C47.6571 36.6069 47.4471 34.9809 47.3531 33.5069C47.1183 30.7468 47.0635 27.9742 47.1891 25.2069C47.2731 23.9889 47.3601 22.4389 48.2271 21.5669C50.3271 19.4619 53.6391 19.7669 56.5701 19.6329C60.1281 19.4689 65.9021 19.4329 69.1341 19.5329C69.2653 19.5205 69.3876 19.4611 69.4784 19.3657C69.5693 19.2703 69.6227 19.1453 69.6288 19.0136C69.6349 18.882 69.5932 18.7526 69.5115 18.6492C69.4299 18.5459 69.3136 18.4755 69.1841 18.4509Z" fill="#F8F8FF"/>
<path d="M72.1981 33.957C70.5375 32.2224 68.7608 30.603 66.8801 29.11C68.4279 28.118 69.8689 26.9685 71.1801 25.68C71.2525 25.637 71.3151 25.5794 71.3638 25.5107C71.4124 25.442 71.4461 25.3639 71.4626 25.2813C71.4791 25.1988 71.478 25.1137 71.4595 25.0316C71.4409 24.9495 71.4053 24.8722 71.3549 24.8048C71.3046 24.7373 71.2406 24.6812 71.1671 24.6401C71.0936 24.5991 71.0124 24.5739 70.9285 24.5663C70.8447 24.5586 70.7602 24.5687 70.6805 24.5959C70.6009 24.6231 70.5278 24.6667 70.4661 24.724C66.8331 27.033 66.5431 27.253 65.7661 27.682C60.0791 30.815 59.4031 27.106 50.0171 22.797C49.955 22.7596 49.8861 22.735 49.8145 22.7246C49.7428 22.7141 49.6697 22.718 49.5995 22.7359C49.5294 22.7539 49.4635 22.7857 49.4057 22.8293C49.3479 22.873 49.2993 22.9277 49.2628 22.9903C49.2263 23.0529 49.2026 23.1221 49.1931 23.1939C49.1836 23.2657 49.1884 23.3387 49.2073 23.4086C49.2262 23.4786 49.2589 23.544 49.3033 23.6013C49.3477 23.6585 49.4031 23.7063 49.4661 23.742C51.9015 25.5825 54.4306 27.2958 57.0431 28.875C55.9778 29.7484 54.9775 30.6983 54.0501 31.717C51.8221 33.949 50.1501 35.183 50.6921 35.895C51.1291 36.465 52.3781 35.61 52.9631 35.195C54.6473 33.7775 56.2267 32.2402 57.6891 30.595C57.942 30.295 58.171 29.9757 58.3741 29.64C59.4597 30.2991 60.6997 30.6607 61.9694 30.6884C63.2391 30.7162 64.4938 30.409 65.6071 29.798C66.0301 30.5317 66.5764 31.187 67.2221 31.735C68.1641 32.65 70.5411 34.882 71.2421 35.402C72.3001 36.187 72.7091 36.455 73.0901 36.078C73.5821 35.598 72.6451 34.484 72.1981 33.957Z" fill="#F8F8FF"/>
<path d="M84.5161 16.0369C82.4161 11.8239 76.3871 11.1949 73.2161 13.6459C72.4752 14.224 71.865 14.9522 71.4254 15.7828C70.9858 16.6134 70.7268 17.5275 70.6654 18.4652C70.604 19.403 70.7416 20.3431 71.0692 21.2238C71.3968 22.1046 71.9069 22.9062 72.5661 23.5759C73.8718 24.9235 75.6353 25.7327 77.5084 25.8438C79.3815 25.9548 81.2282 25.3598 82.6841 24.1759C83.8648 23.2263 84.6887 21.9045 85.0214 20.4264C85.3542 18.9482 85.176 17.4008 84.5161 16.0369ZM78.8911 16.7979C78.7621 18.1979 78.8041 20.1199 78.6381 20.9669C78.5771 21.2899 78.4841 21.5769 78.4041 21.8949C78.4087 21.9771 78.3964 22.0593 78.3678 22.1365C78.3393 22.2137 78.2952 22.2842 78.2383 22.3437C78.1813 22.4031 78.1128 22.4502 78.0369 22.482C77.9609 22.5138 77.8793 22.5296 77.797 22.5285C77.7147 22.5274 77.6335 22.5094 77.5585 22.4756C77.4835 22.4418 77.4162 22.3929 77.3609 22.3319C77.3055 22.271 77.2633 22.1994 77.2369 22.1214C77.2104 22.0435 77.2003 21.9609 77.2071 21.8789C76.9691 21.0733 76.8714 20.2327 76.9181 19.3939C76.8276 19.4965 76.7019 19.5615 76.5659 19.576C76.4298 19.5905 76.2933 19.5535 76.1832 19.4722C76.0731 19.391 75.9974 19.2715 75.9711 19.1372C75.9448 19.0029 75.9698 18.8637 76.0411 18.7469C76.2491 17.8438 76.6402 16.9929 77.1901 16.2469C77.2965 16.0685 77.4603 15.9315 77.6547 15.8583C77.8492 15.7851 78.0627 15.7802 78.2603 15.8442C78.4579 15.9082 78.628 16.0374 78.7426 16.2107C78.8572 16.384 78.9095 16.591 78.8911 16.7979Z" fill="#38A1FF"/>
<path d="M103.007 183.272C103.006 183.181 102.985 183.092 102.944 183.011C102.992 182.454 102.911 181.893 102.706 181.373C102.502 180.852 102.18 180.386 101.765 180.011C99.489 177.938 96.6729 176.551 93.6421 176.011C86.2573 175.206 78.8355 174.789 71.4071 174.761C57.5371 174.716 56.5161 175.805 53.1831 177.991C52.7098 178.288 52.2734 178.64 51.8831 179.04C50.9721 179.628 50.2405 180.456 49.7681 181.432C49.7281 181.532 49.2621 182.88 49.1991 183.249C48.7771 185.749 49.9491 187.749 53.8681 188.316C55.3231 188.525 55.1911 188.439 60.3751 188.832C66.2931 189.28 96.2111 191.632 101.034 188.118C102.248 187.24 103.045 185.805 103.007 183.272ZM93.3261 177.813C96.008 178.295 98.4991 179.525 100.512 181.361C101.158 181.961 101.455 182.992 100.612 183.379C99.2471 184.004 100.289 183.879 54.7671 183.086C53.5082 182.962 52.2773 182.636 51.1211 182.123C51.1991 181.88 51.3119 181.65 51.4561 181.439C51.7704 181.637 52.1458 181.715 52.5131 181.659C53.5612 181.715 54.6083 181.533 55.5761 181.126C56.544 180.72 57.4075 180.101 58.1021 179.314C58.48 178.994 58.7607 178.574 58.9124 178.103C59.064 177.632 59.0805 177.127 58.9601 176.647C65.5171 175.758 89.4881 177.137 93.3231 177.813H93.3261Z" fill="#F8F8FF"/>
<path d="M54.6651 52.2679C48.4981 52.4919 42.7371 52.3569 36.6031 51.9789C32.5531 51.7299 28.3211 50.7379 26.0081 47.3849C23.6481 43.959 23.6951 40.1959 23.5501 36.1129C23.2501 27.8839 23.0561 19.3129 24.8741 11.3039C26.1651 5.62395 28.4571 1.64295 34.2571 0.782946C39.5821 -0.00205404 71.9361 -0.578054 82.4071 0.997946C87.6071 1.77995 93.2551 3.01595 96.9971 6.68995C100.151 9.78995 100.91 13.8449 100.976 18.2519C101.183 31.6759 102.376 44.0339 94.9471 49.6439C88.7261 54.3319 80.4801 52.0339 73.3171 52.0799C73.1516 54.6387 71.9916 57.0312 70.0851 58.7459C64.5491 63.187 56.3761 58.5509 54.6651 52.2679ZM73.2791 50.9679C80.2321 50.7769 88.3981 52.8019 94.0121 48.4179C97.0391 46.0539 98.4481 42.2019 98.9061 38.4019C99.7061 31.7559 99.2961 25.0019 99.1791 18.2729C99.0301 9.77295 96.2251 4.90995 82.1361 2.80195C71.8871 1.27095 39.6291 1.84795 34.5271 2.60395C29.5381 3.34195 27.7771 6.81595 26.6611 11.7109C24.8841 19.5109 25.0831 28.0639 25.3611 36.0479C25.4901 39.7479 25.3881 43.3069 27.4901 46.3639C29.4371 49.208 33.2711 49.9829 36.7111 50.2069C43.9721 50.6789 50.5911 50.7679 55.2741 50.6199C55.469 50.6133 55.6597 50.677 55.8114 50.7995C55.9631 50.922 56.0656 51.095 56.1001 51.2869C56.4166 52.7068 57.0361 54.0415 57.9161 55.1997C58.7962 56.358 59.916 57.3125 61.1991 57.9979C66.0721 60.6769 71.5211 58.5209 72.1991 51.2719C72.2105 51.151 72.2584 51.0364 72.3364 50.9432C72.4144 50.8501 72.5188 50.7828 72.6359 50.7503C72.7529 50.7177 72.8771 50.7215 72.9919 50.7611C73.1068 50.8007 73.2069 50.8742 73.2791 50.9719V50.9679Z" fill="#F8F8FF"/>
<path d="M73.4461 62.1189C74.9548 61.7055 76.5305 61.5951 78.0821 61.7939C81.0721 62.2939 83.8961 64.9469 82.5021 67.9889C81.5661 70.0369 78.8201 71.7029 74.8731 71.1229C68.7891 70.2329 67.5731 64.2759 72.6291 61.7619C72.7039 61.7168 72.7884 61.6902 72.8755 61.6845C72.9627 61.6788 73.05 61.694 73.13 61.729C73.21 61.764 73.2805 61.8176 73.3355 61.8855C73.3905 61.9533 73.4285 62.0334 73.4461 62.1189ZM73.0111 62.8329C72.0929 63.4878 71.4541 64.4635 71.2211 65.5669C71.1499 66.0952 71.2309 66.6327 71.4546 67.1165C71.6783 67.6003 72.0355 68.0101 72.4841 68.2979C73.3147 68.8194 74.2419 69.1679 75.2103 69.3226C76.1788 69.4772 77.1685 69.4348 78.1201 69.1979C80.6101 68.6099 82.1631 66.3149 79.9541 64.5319C78.2971 63.1839 75.7911 63.0559 73.6951 63.2929C73.5433 63.3193 73.3872 63.2862 73.2591 63.2005C73.131 63.1149 73.0408 62.9833 73.0071 62.8329H73.0111Z" fill="#F8F8FF"/>
<path d="M88.4301 70.1869C88.4784 70.1121 88.543 70.0492 88.619 70.0028C88.695 69.9564 88.7805 69.9277 88.8691 69.9189C89.7135 69.6744 90.6035 69.6316 91.4675 69.794C92.3314 69.9564 93.1451 70.3195 93.8431 70.8539C96.6111 73.0409 94.1761 77.3019 89.5361 76.4469C86.8361 75.9469 85.6361 73.8999 86.1541 72.2069C86.3153 71.6959 86.6122 71.2381 87.013 70.8824C87.4137 70.5267 87.9035 70.2864 88.4301 70.1869ZM89.0951 71.1069C88.7616 71.2127 88.4633 71.4074 88.2323 71.6702C88.0013 71.9329 87.8463 72.2537 87.7841 72.5979C87.4061 74.7769 92.0531 75.5719 93.0671 73.5519C93.4911 72.7129 92.6241 72.0519 91.7671 71.6699C90.9233 71.3046 90.0145 71.1131 89.0951 71.1069Z" fill="#F8F8FF"/>
<path d="M148.023 58.5589C147.282 56.5419 145.476 55.6509 143.808 56.8589C143.408 51.8439 143.47 48.6489 141.699 46.7759C139.911 44.9239 137.682 45.5939 136.136 47.9759C135.106 42.6989 135.42 39.2339 135.143 37.2209C134.095 29.6809 125.643 30.9209 123.943 39.4739C122.666 37.6889 120.591 37.2549 119.017 38.9689C115.638 42.6529 116.267 52.6689 121.117 60.2489C121.732 61.1971 122.624 61.9318 123.673 62.3522C124.722 62.7726 125.875 62.8581 126.974 62.5969C128.11 64.1571 129.813 65.2084 131.717 65.5239C132.306 67.3026 133.525 68.8041 135.145 69.7449C134.128 72.1138 133.821 74.7268 134.26 77.2669C134.294 77.4479 134.388 77.612 134.527 77.7325C134.666 77.853 134.842 77.9228 135.026 77.9305C135.21 77.9381 135.391 77.8832 135.54 77.7747C135.689 77.6662 135.796 77.5104 135.845 77.3329C135.966 76.7731 136.293 76.279 136.76 75.9479C137.498 75.4969 138.236 76.1929 138.528 77.0819C138.902 78.2239 138.607 78.8419 139.315 79.0389C139.455 79.0778 139.602 79.0738 139.74 79.0274C139.877 78.981 139.997 78.8945 140.084 78.7789C140.228 78.5676 140.405 78.3817 140.61 78.2289C140.866 78.0559 140.947 78.1439 141.121 78.4399C141.478 79.1391 141.595 79.9367 141.453 80.7089C141.426 80.8364 141.439 80.9689 141.49 81.0889C141.541 81.2088 141.627 81.3103 141.737 81.3799C142.177 81.6549 142.502 81.2929 142.632 81.2379C142.647 81.2319 142.658 81.2089 142.669 81.2149C142.698 81.2308 142.722 81.2543 142.739 81.2829C143.351 82.1829 142.423 83.9499 142.039 84.9319C141.955 85.0533 141.918 85.2016 141.936 85.3484C141.955 85.4951 142.026 85.63 142.138 85.727C142.25 85.8241 142.393 85.8765 142.541 85.8743C142.689 85.8721 142.831 85.8153 142.939 85.7149C145.862 82.7739 147.72 78.6849 146.726 74.6249C147.281 73.7491 147.689 72.7884 147.933 71.7809C148.599 69.2099 149.048 61.2629 148.023 58.5589ZM123.839 43.7849C123.809 43.8498 123.766 43.908 123.713 43.9562C123.66 44.0044 123.598 44.0416 123.53 44.0658C123.463 44.0899 123.391 44.1005 123.32 44.097C123.248 44.0934 123.178 44.0757 123.113 44.0449C122.513 43.8829 121.867 45.2779 121.732 45.8659C121.44 47.6034 121.536 49.384 122.013 51.0799C122.283 52.1165 122.425 53.182 122.437 54.2529C122.462 54.3333 122.469 54.418 122.459 54.5015C122.449 54.585 122.422 54.6654 122.379 54.7376C122.336 54.8098 122.278 54.8721 122.209 54.9205C122.14 54.9689 122.062 55.0022 121.979 55.0185C121.897 55.0347 121.812 55.0333 121.73 55.0146C121.648 54.9958 121.571 54.96 121.503 54.9095C121.436 54.859 121.38 54.7949 121.339 54.7215C121.299 54.648 121.274 54.5667 121.266 54.4829C121.054 53.8829 120.702 53.1169 120.525 52.4999C119.723 50.228 119.531 47.7853 119.968 45.4159C120.622 42.9439 122.462 42.2619 123.579 43.0569C123.71 43.1191 123.811 43.2306 123.86 43.3671C123.908 43.5036 123.901 43.6539 123.839 43.7849ZM130.625 36.3999C130.462 36.5459 130.342 36.7159 130.19 36.8719C129.804 37.2466 129.465 37.6671 129.181 38.1239C128.035 40.0039 128.029 42.7469 127.104 42.7339C126.455 42.7229 126.358 41.3099 126.362 40.8689C126.392 39.3209 127.562 36.4449 129.162 35.4689C129.762 35.1059 131.003 34.6629 131.277 35.3159C131.484 35.8189 131.051 36.0139 130.625 36.3979V36.3999Z" fill="#F8F8FF"/>
</svg>
