<svg width="200" height="176" viewBox="0 0 200 176" fill="none" xmlns="http://www.w3.org/2000/svg">
<g opacity="0.5">
<path d="M22.8068 42.4297C21.9847 42.1928 6.01494 38.3246 5.70443 38.2488C4.86888 38.0266 4.00562 37.9263 3.14138 37.9509C-0.478455 38.1856 -1.48999 42.6318 2.90771 45.1748C5.04235 46.4084 7.35804 47.3442 9.54952 48.4504C11.4747 49.2195 13.1035 50.5842 14.1977 52.345C14.2609 52.4459 14.358 52.5209 14.4716 52.5565C14.5852 52.592 14.7078 52.5858 14.8172 52.5389C14.9266 52.492 15.0157 52.4076 15.0682 52.3008C15.1208 52.194 15.1335 52.0719 15.104 51.9566C14.2461 47.6673 4.62132 45.7306 2.09196 43.0096C0.982531 41.816 0.862537 39.6329 2.79192 39.2551C4.13713 38.9919 4.12134 39.174 20.968 43.2949C22.3363 43.6296 24.3962 43.9433 25.1499 45.3274C26.4361 47.6873 22.2553 50.4325 23.3763 53.5218C23.4066 53.6107 23.4697 53.6847 23.5527 53.7287C23.6357 53.7728 23.7323 53.7836 23.8229 53.7589C23.9136 53.7342 23.9914 53.6759 24.0406 53.5959C24.0898 53.5159 24.1067 53.4201 24.0878 53.3281C23.4563 50.724 27.5477 48.3641 26.4709 45.2232C25.9193 43.6149 24.3067 42.8633 22.8068 42.4297Z" fill="#F8F8FF"/>
<path d="M83.6931 171.089C82.8826 167.46 78.1891 167.179 72.7925 165.574C70.7875 165.147 68.9695 164.096 67.6001 162.571C67.2117 162.207 66.6907 162.765 66.8496 163.179C68.398 167.201 78.3165 167.419 81.2848 169.587C82.5416 170.505 83.1647 172.583 81.4269 173.368C79.9269 174.045 77.9533 173.653 76.3745 173.562C74.164 173.433 65.3823 172.947 63.2172 172.825C61.7025 172.738 59.5331 172.876 58.349 171.724C56.3164 169.737 60.172 166.116 58.4658 163.198C58.2321 162.797 57.589 163.054 57.7932 163.508C58.9226 166.024 55.1817 169.118 57.0164 172.053C57.9469 173.543 59.8257 173.904 61.4562 174.021C62.1067 174.068 75.0987 174.775 75.7492 174.811C77.5755 174.911 79.6354 175.27 81.4195 174.72C82.196 174.529 82.8675 174.043 83.2919 173.365C83.7163 172.688 83.8602 171.871 83.6931 171.089Z" fill="#F8F8FF"/>
<path d="M136.426 34.7011C136.839 33.2653 136.752 31.7319 136.181 30.3515C135.609 28.9711 134.586 27.8253 133.28 27.1015C132.403 26.6565 131.44 26.4097 130.458 26.3784C129.475 26.3471 128.498 26.5322 127.596 26.9204C123.979 28.4993 122.986 33.1212 124.227 36.1379C126.334 41.2419 134.841 40.964 136.426 34.7011ZM128.93 33.3328C128.844 33.0447 128.871 32.7346 129.006 32.4659C129.141 32.1972 129.374 31.9904 129.656 31.8877C129.939 31.785 130.25 31.7943 130.526 31.9136C130.802 32.033 131.022 32.2534 131.141 32.5297C131.206 32.6774 131.239 32.8368 131.24 32.9982C131.241 33.1595 131.208 33.3193 131.145 33.4675C131.081 33.6158 130.988 33.7495 130.871 33.8602C130.753 33.9709 130.614 34.0563 130.463 34.1112C130.311 34.166 130.15 34.1891 129.989 34.179C129.828 34.1689 129.67 34.1258 129.527 34.0524C129.383 33.9791 129.256 33.8769 129.153 33.7524C129.051 33.6279 128.975 33.4879 128.93 33.3328Z" fill="#C9DFFF"/>
<path d="M181.699 35.1903C181.636 34.0767 181.804 32.0757 180.612 31.4873C180.245 31.3425 179.854 31.2678 179.459 31.2673C168.985 31.162 142.239 31.6694 137.629 31.6694C137.811 32.5685 137.842 33.4917 137.72 34.4008C145.332 34.284 152.932 34.1156 160.544 33.9609C160.59 36.3976 161.135 42.5479 161.176 42.971C161.216 43.3594 161.176 43.932 161.551 44.1751C162.499 44.4157 163.475 44.522 164.451 44.4909C166.88 44.5509 180.08 44.5446 181.372 43.6625C181.793 43.3731 181.741 42.7047 181.76 42.251C181.862 39.9006 181.832 37.5323 181.699 35.1903Z" fill="#C9DFFF"/>
<path d="M3.45334 127.044C19.1705 123.852 21.7209 122.33 49.5418 119.004C50.2281 118.922 50.267 117.837 49.5418 117.891C36.8887 118.821 16.9591 122.109 3.23335 126.228C3.12518 126.257 3.03302 126.328 2.97716 126.425C2.92129 126.522 2.9063 126.638 2.93547 126.746C2.96464 126.854 3.03559 126.946 3.13271 127.002C3.22983 127.058 3.34517 127.073 3.45334 127.044Z" fill="#C9DFFF"/>
<path d="M74.8781 116.57C87.9617 115.988 99.1086 115.289 118.43 115.289C129.731 115.289 129.465 115.517 130.664 115.224C130.751 115.196 130.827 115.142 130.881 115.069C130.935 114.995 130.964 114.907 130.964 114.816C130.964 114.725 130.935 114.636 130.881 114.563C130.827 114.489 130.751 114.435 130.664 114.408C129.823 114.223 128.961 114.149 128.1 114.188C106.038 113.872 90.8647 114.623 74.8644 115.741C74.3349 115.778 74.3212 116.595 74.8781 116.57Z" fill="#C9DFFF"/>
<path d="M144.556 115.068C150.967 115.717 165.648 115.761 193.739 120.519C195.695 120.906 197.67 121.187 199.656 121.361C200.071 121.387 200.122 120.78 199.746 120.662C192.378 118.347 155.978 114.136 144.556 114.228C144.45 114.236 144.351 114.283 144.278 114.361C144.205 114.439 144.165 114.541 144.165 114.648C144.165 114.755 144.205 114.857 144.278 114.935C144.351 115.013 144.45 115.06 144.556 115.068Z" fill="#C9DFFF"/>
<path d="M131.429 50.8323C130.594 50.5165 130.309 51.2923 126.885 52.528C125.263 53.1132 123.6 53.549 121.938 54.0427C121.537 54.1616 121.587 54.8426 122.043 54.8068C124.712 54.5189 127.313 53.7789 129.733 52.6185C130.382 52.3238 131.463 52.0343 131.663 51.2596C131.685 51.172 131.673 51.0792 131.63 50.9999C131.587 50.9206 131.515 50.8607 131.429 50.8323Z" fill="#F8F8FF"/>
<path d="M132.088 52.3476C129.729 53.7426 127.218 54.8631 124.604 55.6875C123.946 55.8875 122.748 55.9369 122.404 56.6074C122.347 56.7143 122.333 56.839 122.364 56.9562C122.395 57.0734 122.469 57.1744 122.572 57.239C122.95 57.5242 123.258 57.4748 125.161 56.8895C127.861 56.0666 130.394 54.7738 132.645 53.0707C133.059 52.7455 132.524 52.0961 132.088 52.3476Z" fill="#F8F8FF"/>
<path d="M131.57 55.1918C125.998 57.7717 125.431 57.1612 124.518 57.8065C124.43 57.8619 124.362 57.9442 124.325 58.0411C124.287 58.138 124.282 58.2445 124.309 58.3447C124.337 58.4449 124.396 58.5336 124.478 58.5976C124.56 58.6616 124.66 58.6975 124.764 58.7001C125.402 58.6949 126.033 58.5584 126.616 58.2991C128.5 57.7316 130.304 56.9266 131.984 55.9034C132.077 55.8478 132.144 55.7578 132.171 55.653C132.198 55.5482 132.183 55.437 132.128 55.3434C132.074 55.2498 131.985 55.1814 131.88 55.1531C131.776 55.1247 131.665 55.1386 131.57 55.1918Z" fill="#F8F8FF"/>
<path d="M120.166 63.8916C120.275 63.7787 120.336 63.6278 120.336 63.4706C120.336 63.3135 120.275 63.1625 120.166 63.0496C120.036 62.9327 119.919 62.8159 119.79 62.7001C120.948 62.1096 122.148 62.3601 125.435 61.5423C127.67 61.0246 129.832 60.2286 131.869 59.1729C131.945 59.1266 132.001 59.0548 132.028 58.9706C132.055 58.8864 132.05 58.7953 132.016 58.7139C131.981 58.6326 131.919 58.5662 131.84 58.527C131.76 58.4878 131.67 58.4784 131.584 58.5003C128.204 59.7977 124.678 60.6758 121.084 61.1149C120.301 61.1782 119.543 61.4268 118.874 61.8401C117.812 60.856 114.861 58.0729 114.407 57.6709C116.128 57.074 116.859 55.5068 118.252 54.0458C120.51 51.6806 122.97 52.869 125.05 51.2754C125.643 50.8206 125.101 49.8017 124.441 50.2396C123.338 50.8305 122.127 51.1918 120.88 51.3017C116.611 52.1511 116.579 55.632 113.708 57.0909C113.373 56.8613 112.988 56.7155 112.585 56.6658C112.182 56.6162 111.773 56.6641 111.392 56.8056C107.901 57.6488 104.548 58.9872 101.436 60.7802C102.39 55.5362 103.368 45.1651 101.203 40.4937C101.89 40.2359 101.383 36.6413 101.309 35.7676C100.513 26.7322 97.9687 14.5149 91.7805 7.90783C90.0054 5.80963 87.4944 4.47068 84.763 4.16589C84.3367 4.11326 84.244 4.81744 84.6577 4.91744C90.8069 6.39105 94.3478 13.0602 96.4909 19.0031C95.8195 19.5035 95.2449 20.122 94.7951 20.8283C93.3215 22.5124 93.4952 25.0902 93.371 26.7059C91.9218 26.5996 90.4661 26.6211 89.0207 26.7701C83.7922 27.1213 78.5959 27.8484 73.4719 28.9458C68.1121 30.0931 59.023 32.5751 54.4664 35.6129C50.455 38.2875 49.394 41.9653 50.0519 44.2441C47.7604 44.6325 46.5173 46.5356 45.0163 48.1671C43.6474 49.0044 42.4158 50.0479 41.3649 51.2606C34.6764 58.3585 28.6932 66.0892 23.4994 74.3438C24.8187 68.375 25.4871 62.2807 25.493 56.1678C25.493 55.1962 25.2414 54.852 24.1467 54.7826C22.2826 54.6636 20.4048 54.5563 18.5407 54.4457C17.3828 54.3773 14.3998 53.6342 13.4135 54.1605C11.3347 55.271 9.62421 61.2297 8.79162 63.3527C6.21005 69.7835 4.74625 76.608 4.46339 83.5318C4.31498 89.8157 5.35809 97.0586 10.6905 100.373C15.7281 103.506 22.4194 101.757 27.4434 98.6259C33.721 94.7134 46.9667 79.0341 49.0635 79.1289C52.6507 79.2899 53.9117 134.118 56.3011 157.757C56.5011 159.739 57.0295 160.437 59.5378 160.67C68.6753 161.522 68.6542 161.685 69.1047 161.149C69.2647 160.916 69.3545 160.642 69.3636 160.359C73.343 130.217 74.4311 99.7643 72.613 69.4156C72.534 68.0557 72.7182 66.5284 72.7688 65.04C72.924 64.549 73.1958 64.1029 73.561 63.7398C73.9261 63.3767 74.3737 63.1074 74.8655 62.9548C76.0307 63.9264 77.6885 63.8369 79.1906 63.6285C80.3947 63.4611 81.5968 63.2485 82.7894 62.9969C83.9204 62.9216 85.0089 62.5363 85.9355 61.8833C85.9708 61.8467 85.9971 61.8023 86.0124 61.7538C86.2797 66.3599 87.1849 71.7965 90.0122 75.4648C97.0929 84.636 112.388 72.5786 120.166 63.8916ZM100.332 39.0506C99.5407 38.0225 98.4905 37.2233 97.2887 36.735C95.9705 36.2319 94.7871 35.4294 93.832 34.3909C93.168 33.5464 92.7115 32.5578 92.4995 31.5047C92.8661 31.0971 93.1791 30.6443 93.431 30.1574C94.6122 30.3807 95.7435 30.815 96.7708 31.4394C97.0888 31.691 97.4268 31.9163 97.7813 32.1131C99.1497 32.6825 98.9507 30.6679 99.2549 29.8732C99.7623 32.5215 100.188 37.4623 100.332 39.0506ZM49.5814 56.9004C48.0604 55.8604 46.9499 54.5352 43.3027 54.0268C42.8617 53.9658 42.8238 53.2995 43.3027 53.3016C44.5879 53.3218 45.8561 53.5991 47.0324 54.1172C48.2087 54.6353 49.2694 55.3837 50.1519 56.3183C50.4119 56.6635 49.9192 57.1319 49.5814 56.9004ZM53.297 48.2913C51.3264 47.5211 49.2025 47.2241 47.0962 47.424C49.4677 44.8157 51.1402 44.9325 54.9159 46.4661C54.2768 46.9784 53.7294 47.5956 53.297 48.2913ZM54.3327 48.6407C54.8337 47.9925 55.4478 47.4401 56.1453 47.0103C59.9858 48.7076 63.6539 50.771 67.0985 53.1721C66.417 53.4902 65.7917 53.9168 65.247 54.4352C61.9136 51.9776 58.236 50.0251 54.3327 48.6407ZM66.2269 64.5516C65.6464 64.1854 65.1118 63.7511 64.6344 63.258C62.9085 61.9479 60.8924 61.0727 58.7567 60.7065C58.6817 60.6868 58.6165 60.6401 58.5736 60.5754C58.5308 60.5106 58.5133 60.4324 58.5245 60.3556C58.5357 60.2787 58.5748 60.2087 58.6343 60.1589C58.6939 60.1091 58.7697 60.083 58.8473 60.0855C62.2229 60.0571 66.2954 62.9433 66.7059 64.2021C66.8027 64.4863 66.4596 64.6558 66.2269 64.5516ZM72.6866 62.7401C72.1414 59.2855 69.1079 57.0425 66.188 55.0626C66.3564 54.9331 66.5217 54.7994 66.6922 54.6868C67.2019 54.4734 67.6992 54.2312 68.1816 53.9616C70.8488 55.9857 73.9277 58.5056 74.1497 61.7812C73.606 62.0034 73.1063 62.3291 72.6866 62.7401ZM101.769 76.4363C94.7341 79.2688 89.3238 77.1731 87.527 65.3158C86.8376 60.7591 87.1323 56.1583 87.1007 51.5796C87.0957 51.4868 87.0554 51.3994 86.9879 51.3355C86.9204 51.2716 86.8311 51.236 86.7381 51.236C86.6452 51.236 86.5558 51.2716 86.4883 51.3355C86.4209 51.3994 86.3805 51.4868 86.3755 51.5796C85.973 54.8821 85.8516 58.2129 86.0124 61.536C85.9951 61.4906 85.9668 61.4502 85.9301 61.4184C85.8933 61.3866 85.8493 61.3644 85.8019 61.3539C84.6598 61.0707 84.5072 61.5644 79.859 62.377C78.4277 62.7436 76.9322 62.7835 75.4834 62.4938C75.5091 62.4233 75.5223 62.3489 75.5223 62.2738C75.5602 57.3267 70.3415 53.7047 65.9438 50.8291C63.5231 49.247 60.997 47.8325 58.3831 46.5956C56.1063 45.5177 53.4633 44.1231 50.8739 44.1746C50.5203 37.4381 57.4326 34.8782 63.926 32.7299C78.6485 27.8585 90.5269 28.0069 93.2636 27.6417C93.1095 28.5907 92.8035 29.5088 92.3574 30.3605C92.3353 30.2583 92.277 30.1676 92.1932 30.1051C92.1094 30.0425 92.0058 30.0125 91.9015 30.0204C91.7973 30.0284 91.6995 30.0738 91.6261 30.1484C91.5528 30.2229 91.5089 30.3214 91.5027 30.4258C91.4227 31.591 91.6369 32.7577 92.1256 33.8186C92.6143 34.8795 93.3618 35.8005 94.2994 36.4971C96.2866 38.0002 98.6308 37.9707 100.035 41.0032C101.113 43.3315 101.121 46.1419 101.174 48.6544C101.397 59.2497 98.8097 64.9053 98.5329 67.5294C98.4823 68.0093 99.1802 68.1378 99.4002 67.763C100.24 65.9823 100.82 64.09 101.122 62.1443C101.2 62.1715 101.282 62.1798 101.363 62.1684C101.444 62.1571 101.522 62.1264 101.589 62.0791C104.529 60.3507 107.691 59.0309 110.987 58.1561C111.868 57.9245 112.553 57.7035 113.303 58.3508C113.365 58.4045 118.81 63.4485 118.87 63.5032C114.068 68.7988 108.472 73.7375 101.769 76.4363Z" fill="#F8F8FF"/>
<path d="M156.569 160.028C152.155 161.499 148.18 164.054 145.009 167.459C147.007 160.603 149.499 153.901 152.465 147.405C152.713 146.862 152.144 146.023 151.534 146.472C145.006 151.254 140.098 157.919 137.471 165.573C136.764 161.62 136.336 157.623 136.19 153.61C136.187 153.462 136.136 153.32 136.045 153.203C135.954 153.087 135.828 153.002 135.686 152.963C135.543 152.924 135.392 152.932 135.254 152.985C135.116 153.039 134.999 153.135 134.921 153.261C132.566 157.643 131.371 162.553 131.447 167.527C127.246 161.572 121.799 156.602 115.485 152.963C115.35 152.887 115.192 152.863 115.041 152.894C114.89 152.926 114.755 153.01 114.66 153.133C114.566 153.255 114.519 153.407 114.528 153.562C114.537 153.716 114.601 153.862 114.708 153.973C119.909 159.412 123.894 165.895 126.398 172.991C126.578 173.484 127.354 173.289 127.201 172.771C125.444 166.892 122.564 161.41 118.721 156.627C123.869 160.361 128.27 165.029 131.694 170.389C132.03 170.916 133.062 170.764 132.988 170.04C132.491 165.377 133.167 160.664 134.956 156.329C135.239 160.454 135.806 164.555 136.651 168.602C136.694 168.744 136.781 168.869 136.9 168.957C137.019 169.046 137.163 169.094 137.312 169.094C137.46 169.094 137.605 169.046 137.724 168.957C137.843 168.869 137.93 168.744 137.972 168.602C139.948 161.076 144.187 154.339 150.116 149.3C147.156 156.055 144.719 163.027 142.827 170.156C142.793 170.314 142.815 170.478 142.89 170.622C142.965 170.765 143.087 170.878 143.236 170.94C143.385 171.002 143.551 171.011 143.706 170.964C143.861 170.917 143.994 170.817 144.083 170.682C146.857 166.945 150.568 164.007 154.841 162.162C152.356 165.555 149.629 169.44 150.465 173.672C150.571 174.19 151.343 174.047 151.359 173.555C151.507 168.675 154.716 164.904 157.352 161.05C157.414 160.93 157.441 160.795 157.429 160.66C157.417 160.526 157.367 160.397 157.285 160.29C157.203 160.183 157.092 160.101 156.965 160.055C156.839 160.008 156.701 159.999 156.569 160.028Z" fill="#C9DFFF"/>
<path d="M193.326 27.5409C187.832 -3.08399 165.842 -0.352538 133.837 0.417954C119.583 0.761798 105.342 1.31862 91.1138 2.08841C87.8782 2.2684 84.4994 2.28419 81.4174 3.37045C78.8932 4.29345 76.6501 5.85245 74.9051 7.89657C69.8442 13.6995 68.8338 21.6486 68.5622 29.2325C68.5517 29.5051 69.0116 29.5819 69.0537 29.2977C70.039 22.5749 70.6958 11.047 79.0617 5.74824C81.7202 4.24278 84.7189 3.44067 87.774 3.41782C101.575 2.54102 115.415 2.09051 129.228 1.72211C166.138 0.734782 184.989 -1.35565 191.384 24.0285C195.279 39.4783 193.095 61.0858 192.989 67.1002C192.884 67.1002 116.558 68.2349 116.451 68.2402C116.358 68.2472 116.271 68.2891 116.208 68.3574C116.144 68.4257 116.109 68.5154 116.109 68.6086C116.109 68.7017 116.144 68.7915 116.208 68.8598C116.271 68.9281 116.358 68.97 116.451 68.977C120.678 69.2254 124.172 69.1454 131.17 69.1454C131.132 87.7077 132.306 100.88 132.439 153.218C132.439 153.335 132.478 153.447 132.55 153.538C132.622 153.629 132.723 153.693 132.836 153.719C132.949 153.744 133.068 153.73 133.172 153.68C133.277 153.629 133.36 153.544 133.41 153.438C133.648 153.089 133.787 152.682 133.812 152.261C133.812 152.134 133.301 86.8036 132.115 69.1191C133.138 69.1191 134.161 69.1065 135.168 69.1065C135.141 81.6512 135.694 94.2095 135.932 106.754C136.774 152.05 135.851 150.949 137.032 152.351C137.323 152.687 137.492 153.111 137.511 153.555C137.558 155.057 137.782 149.944 137.77 146.837C137.741 139.939 137.177 85.2731 136.074 69.0801L140.631 69.0412C140.593 87.7372 141.788 101.52 141.9 153.064C141.901 153.151 141.928 153.236 141.979 153.306C142.03 153.377 142.101 153.43 142.184 153.459C142.266 153.487 142.355 153.489 142.439 153.465C142.522 153.44 142.596 153.391 142.65 153.323C142.65 153.309 142.663 153.309 142.663 153.296C143.052 152.802 143.262 152.191 143.259 151.562C143.259 151.444 142.733 86.5425 141.563 69.0159C142.35 69.0065 189.441 68.3233 192.236 68.0318C193.522 67.897 193.737 67.8834 193.776 67.5792C195.019 57.9438 195.619 40.3225 193.326 27.5409Z" fill="#F8F8FF"/>
</g>
</svg>
