<svg width="200" height="194" viewBox="0 0 200 194" fill="none" xmlns="http://www.w3.org/2000/svg">
<g opacity="0.5">
<path d="M18.4904 98.9543C25.6341 99.0594 38.1355 105.152 42.2325 107.148C48.7458 110.3 50.2164 111.666 49.4811 115.237C48.8508 118.599 47.38 119.335 49.1659 120.7C51.6872 122.486 86.88 135.408 86.88 135.513C91.2922 137.194 91.187 142.131 89.296 146.543C80.9968 166.398 77.5303 175.853 67.9705 191.296C67.4452 192.136 67.4452 192.031 66.6048 191.821C55.9945 189.195 53.5782 187.304 44.7537 182.681C42.9678 181.736 39.186 171.861 38.0304 159.885C37.7152 157.154 34.9839 155.998 32.9879 158.519C31.4121 160.515 31.5171 157.574 29.311 155.998C28.4706 155.368 27.9451 155.788 27.3148 156.418C25.8441 157.679 25.5291 155.158 24.5836 153.897C23.8482 153.057 22.7976 152.951 22.0622 153.897C21.5369 154.527 21.3268 154.422 21.0116 153.792C19.9611 151.586 17.2299 151.901 16.5996 153.687C15.7591 156.313 16.3894 162.826 16.5996 165.558C16.9147 169.025 17.86 169.655 16.2843 169.55C14.1832 169.34 7.66995 165.558 5.77899 164.297C2.31224 161.986 0.106132 160.725 0.00114621 157.259C-0.103941 151.271 7.03983 122.591 11.9773 108.619C14.4986 101.37 14.6034 98.8492 18.4904 98.9543ZM56.2043 135.408C56.2043 137.194 57.3602 137.299 65.8694 140.87C79.3162 146.438 79.8414 146.858 80.9969 145.598C84.0435 142.131 86.0395 140.975 79.9464 139.295C64.7137 134.882 56.7296 128.894 56.2043 135.408ZM55.9944 140.45C55.0489 140.345 54.2086 142.131 55.8894 142.866C55.8894 142.866 70.1766 149.064 76.8999 150.745C77.9505 151.061 77.9504 151.061 78.5807 150.22C79.1059 149.485 79.0009 148.959 78.2654 148.539C75.429 147.279 59.356 140.87 55.9944 140.45Z" fill="#C9DFFF"/>
<path d="M90.4515 152.321C96.8598 164.927 102.112 174.592 113.248 182.366C122.072 188.564 132.788 191.926 143.713 192.346C177.015 193.817 202.018 163.246 197.395 130.155C193.403 101.896 161.257 78.574 132.368 78.1537C129.426 78.1537 122.177 76.683 120.287 75.3173C119.131 74.4769 115.034 67.0182 112.828 59.7695C110.412 52.1006 109.046 50.4199 109.466 48.3187C109.991 45.5874 111.882 45.1671 112.513 39.8095C113.038 36.1326 108.416 36.6578 106.315 40.5447C104.949 43.1711 101.272 43.1712 99.6962 40.6499C99.276 40.0196 99.0659 39.2842 98.8557 38.5489C96.9647 39.8095 94.9687 39.8096 92.9727 39.1793C88.8756 37.9187 89.8213 33.8216 90.5567 29.9346C86.8799 32.0357 83.6232 31.8255 80.7867 28.5688C78.6857 34.5568 73.1178 34.4519 70.5966 30.775C70.1764 31.6155 69.8611 32.4557 69.3357 33.1911C67.0246 36.6578 63.5579 37.078 60.4063 34.2416C58.6204 38.864 61.2468 45.1671 60.7216 45.3773C60.5115 45.4824 59.8813 44.4319 59.7762 43.9067C59.461 42.7511 55.7839 43.9066 53.0526 40.3348C51.1616 37.9186 52.0023 35.9224 53.9982 33.7163C54.9437 32.6658 50.4265 31.4052 50.3214 23.8414C50.2163 18.904 54.1031 16.0675 58.8305 14.912C59.8811 14.7019 59.8813 14.5968 59.7762 13.5463C59.0408 7.03301 65.9743 2.72587 72.6977 5.98244C73.0129 6.08753 73.3278 6.61266 73.5379 6.40259C73.748 6.2975 73.7482 5.87756 73.9583 5.5624C77.32 -1.05594 85.9343 -2.00142 88.8757 3.9866C90.0312 6.40279 89.9264 6.40279 90.2415 6.08763C91.9223 3.67145 95.3888 4.40665 97.7 5.66728C100.221 7.13809 99.381 9.23912 100.116 9.13403C102.322 8.71389 104.424 9.44919 106.315 10.3947C109.256 11.9705 107.575 16.3828 107.89 16.803C108.1 17.1182 111.147 15.4372 114.088 18.5888C115.139 19.7445 114.719 21.4253 114.298 22.8961C113.983 23.8416 115.664 22.3707 118.396 25.9425C121.337 29.7245 121.022 34.0316 117.975 37.1832C116.925 38.2337 115.979 39.4944 114.509 40.1247C114.193 40.2297 114.088 40.5448 113.983 40.9651C112.723 47.2683 109.886 46.9531 111.462 50.9451C114.719 59.3493 116.295 65.0223 120.707 72.7962C122.703 76.368 131.842 76.893 135.939 76.788C160.522 76.6829 190.042 98.2187 197.605 121.646C204.224 142.341 197.08 170.075 176.7 184.152C148.861 203.377 105.684 194.762 90.6616 154.737C89.9263 153.897 89.9263 153.897 90.4515 152.321ZM52.8426 24.3668C53.578 30.9851 58.9355 30.6699 57.7799 29.6194C55.6789 27.8335 54.8385 24.5769 55.784 22.0557C55.9942 21.5304 56.2044 21.11 56.4144 20.5847C57.2549 18.4836 53.0527 18.7989 52.8426 24.3668ZM61.8772 12.7058C61.5621 15.6472 64.3984 17.4334 63.8731 16.2778C63.0327 14.3869 63.453 11.7605 64.2934 9.76445C64.9237 8.18866 61.8772 8.39863 61.8772 12.7058Z" fill="#F8F8FF"/>
<path d="M65.5541 111.981C65.7643 114.187 62.8228 114.502 66.6047 124.062C67.1299 125.427 67.7601 125.427 54.9437 120.49C47.1698 117.548 55.9943 114.397 51.7921 109.564C47.2749 104.312 38.6605 102.631 38.9757 101.685C42.7576 91.6007 45.1738 93.1765 51.7921 95.3826C52.4224 95.5927 62.4024 100.11 63.1379 100.53C67.0248 102.736 64.6087 100.425 65.5541 111.981Z" fill="#C9DFFF"/>
<path d="M87.6152 154.737C92.1325 170.075 95.284 163.352 88.2454 173.647C84.0434 179.74 77.4251 191.296 70.2815 191.926C67.8653 192.241 72.1724 192.872 87.6152 154.737Z" fill="#C9DFFF"/>
<path d="M82.0477 104.838C81.2073 104.838 74.2737 90.4455 73.3283 88.3445C73.0131 87.7141 73.1181 88.4497 70.1767 89.6053C69.4413 89.9205 70.2819 89.7103 73.2234 97.9042C74.2739 100.741 70.7021 94.6476 69.0212 90.4455C68.9162 90.1303 68.7061 90.2355 68.496 90.2355C50.7421 96.4336 35.0891 77.4192 44.5438 61.4512C52.3178 48.4246 69.9666 47.3741 78.3709 58.2996C84.3588 66.1785 84.0437 74.5826 79.6315 81.6211C76.48 86.6637 73.6435 86.9788 74.1688 87.9243C76.48 92.0214 80.577 100.425 82.0477 104.838ZM69.9666 88.3445C77.8456 84.7726 82.7831 76.1583 81.3123 67.3339C79.9467 59.1398 72.1727 51.5761 62.4028 51.9964C52.7379 52.4165 44.754 59.2449 43.1782 68.6996C40.7619 83.0919 55.4694 94.9628 69.9666 88.3445Z" fill="#F8F8FF"/>
<path d="M102.743 75.4218C98.4357 79.4138 96.4397 78.6785 97.07 79.6239C98.5408 82.3553 98.6458 87.0827 98.3307 90.3393C97.9104 95.1717 100.957 100.214 107.785 101.37C118.081 103.156 127.01 90.4443 127.22 79.834C127.22 79.7289 127.115 79.5187 127.325 79.5187C127.535 79.5187 127.535 79.6239 127.535 79.834C130.267 88.4484 119.446 105.782 106.525 102.735C100.222 101.265 97.0701 96.7474 96.8601 92.3352C96.755 89.7089 98.0156 85.4017 96.3347 80.0441C96.0196 78.9935 94.3386 81.0945 88.5607 80.7794C83.6232 80.5693 80.6817 78.1531 85.4091 79.2036C91.3971 80.4642 98.6458 78.258 103.058 73.1105C105.369 70.379 107.365 64.9164 107.89 63.2356C108.521 60.9245 108.941 69.6439 102.743 75.4218Z" fill="#F8F8FF"/>
<path d="M98.4359 127.423C96.545 133.201 93.8133 135.092 91.9224 137.193C91.7123 137.403 91.7124 137.298 91.5023 137.088C91.0821 136.563 91.1873 136.248 91.6074 135.828C98.7511 129.104 96.4397 125.322 99.2761 127.003C123.438 140.975 164.619 144.127 164.619 144.337C164.514 146.963 115.034 139.504 98.4359 127.423Z" fill="#F8F8FF"/>
<path d="M19.0155 154.317C21.9569 154.002 13.973 182.051 38.9755 182.786C40.0261 182.786 40.8664 182.366 40.9715 182.576C41.6018 184.257 29.3106 186.043 22.3771 176.798C16.5991 169.235 18.07 154.317 19.0155 154.317Z" fill="#F8F8FF"/>
<path d="M146.235 108.829C146.97 110.09 150.017 130.26 146.025 139.294C145.92 139.505 145.815 139.925 145.5 139.82C144.659 139.61 145.815 137.929 146.445 129.84C146.865 122.591 146.025 112.191 146.235 108.829Z" fill="#F8F8FF"/>
<path d="M85.6191 104.311C86.1445 103.996 87.7204 105.362 88.1405 105.782C93.2881 111.35 96.9649 116.392 95.5992 123.746C94.9689 127.003 93.8134 126.478 93.9185 125.742C94.2336 122.38 95.1792 118.599 92.1327 113.661C87.9305 107.148 85.8293 104.837 85.6191 104.311Z" fill="#F8F8FF"/>
<path d="M27.8404 175.643C27.8404 178.059 23.4283 174.172 22.798 163.562C22.3778 156.523 23.4282 155.262 23.7434 156.523C24.4787 160.62 24.0585 161.986 25.7392 169.339C26.3696 172.071 27.4201 174.277 27.8404 175.643Z" fill="#F8F8FF"/>
<path d="M29.7308 159.255C30.1511 170.39 31.6218 171.861 32.5673 176.168C32.6724 176.589 31.8321 177.639 30.8866 175.538C26.8946 167.344 28.4705 156.944 29.6261 157.364C29.8361 157.469 29.836 157.679 29.836 157.784C29.626 158.309 29.7308 158.835 29.7308 159.255Z" fill="#F8F8FF"/>
<path d="M35.719 159.044C36.1393 159.044 35.6142 167.238 38.1354 175.432C38.4506 176.588 39.2911 178.689 38.5557 179.004C37.6102 179.319 36.5595 175.747 36.2444 174.802C33.9332 167.763 34.9837 158.939 35.719 159.044Z" fill="#F8F8FF"/>
<path d="M69.3357 103.366C67.9701 114.712 70.0712 117.758 74.6935 124.167C74.9037 124.482 74.6936 124.797 74.2734 124.587C72.9077 123.852 68.8107 119.019 67.9703 113.451C67.2349 108.304 68.6004 103.681 69.3357 103.366Z" fill="#F8F8FF"/>
<path d="M95.7043 87.7138C94.1285 89.3947 88.7707 91.1804 85.4091 92.6512C79.0009 95.5927 79.106 95.6977 78.8959 95.4876C78.4757 94.6472 99.3812 83.8268 95.7043 87.7138Z" fill="#F8F8FF"/>
<path d="M71.7526 103.052C71.9627 117.864 79.6318 117.444 79.0015 118.81C78.2661 120.385 68.3908 112.927 71.2273 103.997C71.3324 103.577 71.4375 103.262 71.7526 103.052Z" fill="#F8F8FF"/>
<path d="M73.6427 102.421C77.3195 114.817 84.3581 112.716 83.938 114.292C83.8329 114.817 83.3076 114.607 82.8874 114.502C79.0004 113.346 75.8488 111.35 74.273 107.358C73.8529 106.098 72.9074 103.576 73.6427 102.421Z" fill="#F8F8FF"/>
<path d="M87.7202 66.8077C87.9303 64.0763 95.389 58.0883 95.9143 58.9287C96.1244 59.2439 92.8678 62.5006 92.0275 63.3411C89.9264 65.4421 89.191 66.8078 88.6658 67.4381C88.3506 67.8583 87.7202 67.7532 87.7202 66.8077Z" fill="#F8F8FF"/>
<path d="M71.6472 127.528C69.8613 126.793 69.7562 126.793 69.5462 126.477C68.6007 124.166 66.4995 117.863 66.8146 115.552C66.9197 115.027 67.55 114.922 67.6551 115.447C69.1258 122.38 69.8613 123.851 71.6472 127.528Z" fill="#F8F8FF"/>
<path d="M79.6308 42.5403C78.7904 42.5403 78.6855 41.805 79.2108 41.2798C81.1017 39.5989 81.7321 38.9684 83.4128 36.3421C88.1402 28.8833 83.6229 42.3302 79.6308 42.5403Z" fill="#F8F8FF"/>
<path d="M62.1927 48.0046C61.4573 45.9034 63.3483 42.5418 65.5544 41.7014C67.2352 41.0711 69.9664 41.7014 69.8614 42.5418C69.7563 43.067 69.021 43.0669 68.6009 42.9619C65.029 42.2265 62.8228 45.9033 62.5077 47.6892C62.4026 47.7943 62.4029 47.8996 62.1927 48.0046Z" fill="#F8F8FF"/>
<path d="M87.4055 50.1049C87.4055 50.8402 87.4054 51.4705 86.7751 51.6807C86.1448 51.9958 85.6193 51.6808 85.0941 51.2605C82.888 49.4746 84.2537 46.218 85.9345 47.5837C86.775 48.4241 87.4055 49.1594 87.4055 50.1049Z" fill="#F8F8FF"/>
<path d="M75.8496 52.1001C75.8496 52.3103 75.8495 52.6256 75.5344 52.7305C75.2192 52.8356 75.114 52.5206 74.904 52.3105C70.8069 43.5911 75.1142 47.6879 75.8496 52.1001Z" fill="#F8F8FF"/>
<path d="M43.3877 75.738C39.0805 59.0346 60.1963 44.5372 74.2734 55.778C92.1324 69.96 74.3783 97.2739 53.6829 88.4495C53.4729 88.3444 53.3679 88.3443 53.2629 88.1343C53.473 87.1888 53.893 86.2434 53.893 85.2979C53.893 85.0878 53.998 84.9829 54.1031 84.8778C57.4647 86.4536 56.8346 85.9283 59.5661 86.6636C59.2509 87.2939 59.0405 87.609 59.6708 87.7141C75.0085 89.5 85.5139 72.1662 75.1136 60.2952C67.0246 51.0506 51.4767 53.467 46.5393 66.4936C46.3292 67.0188 46.7494 67.0188 47.3797 67.0188C46.9596 69.8553 46.4342 71.0107 47.2747 75.8432C46.9595 75.4229 46.5394 75.3177 46.1191 75.5279C45.1736 75.9481 44.3331 75.738 43.3877 75.738Z" fill="#C9DFFF"/>
<path d="M59.5661 86.8729C72.2776 88.4487 80.8919 76.3675 77.4252 66.3875C72.3827 51.6802 52.1072 52.7306 47.2748 67.2279C46.6445 67.123 46.2245 67.2279 46.4345 66.7027C51.3721 53.6761 66.9199 51.2598 75.0089 60.5045C85.4092 72.3755 74.9039 89.8143 59.5661 87.9233C59.0409 87.7133 59.251 87.3981 59.5661 86.8729Z" fill="#F8F8FF"/>
<path d="M54.1032 84.9819C53.788 85.402 53.8933 85.9274 53.263 85.6123C48.9558 82.8808 47.3798 79.729 46.0142 75.7371C48.2203 74.3713 45.699 79.0988 54.1032 84.9819Z" fill="#F8F8FF"/>
<path d="M63.5576 61.3453C63.5576 58.824 66.499 59.7696 67.2344 62.7111C67.7597 65.1273 63.9778 64.6019 63.5576 61.3453Z" fill="#F8F8FF"/>
</g>
</svg>
