<svg width="196" height="193" viewBox="0 0 196 193" fill="none" xmlns="http://www.w3.org/2000/svg">
<path d="M102.631 33.5938C101.722 33.697 97.4638 37.2137 93.321 37.7697C82.6058 39.214 79.0035 36.6494 78.7332 36.8114C78.8735 35.6508 78.7662 32.3002 78.1968 32.1352C72.7685 30.562 68.4998 31.8886 63.5151 33.6764C58.443 35.543 53.8963 38.6063 50.2612 42.6059C46.4154 46.5197 42.7543 50.8215 37.9976 53.678C33.7268 56.2456 27.8983 58.5553 22.9013 58.5337C9.10475 58.4749 2.42315 47.7896 0.338346 49.0224C-1.74645 50.2552 6.29165 60.7485 11.0864 65.1792C14.3484 68.1986 18.0405 70.717 22.042 72.6521C28.4616 75.7468 31.0591 74.8545 35.1711 75.4136C35.8302 75.5034 35.5548 76.3916 35.0287 76.4628C27.5249 77.4675 20.1572 74.0592 14.1843 69.4686C21.7263 80.5933 14.3679 88.7594 3.68585 96.8553C0.124746 99.554 1.07795 103.375 3.89735 106.361C12.1273 115.082 22.6001 122.133 34.9482 123.061C48.8304 124.105 62.0585 115.494 70.1256 104.15C71.1094 102.795 71.9424 101.337 72.6097 99.8015C73.3008 98.2624 73.2874 95.734 73.3968 94.0514C72.869 93.8378 72.3632 93.5735 71.8865 93.2623C71.118 92.4453 75.8727 81.3855 76.5947 80.0445C76.801 79.6566 77.1889 79.2099 77.5933 79.3842C76.9032 79.0861 78.4371 76.3287 78.5888 75.9728C79.0148 74.9721 75.6241 66.543 75.1516 64.6603C74.1737 65.1183 72.1857 66.6502 69.7078 68.1595C67.6572 69.1827 65.5441 70.0758 63.3811 70.8334C61.2729 71.3757 59.1301 71.7731 56.9676 72.0228C54.8051 72.2725 53.2889 75.7489 50.2323 75.2764C49.3493 75.1413 48.4033 74.6967 47.6183 75.1227C46.8961 75.5106 46.6898 76.4442 46.1245 77.0301C45.1558 78.0267 43.3753 77.6914 42.3953 76.7052C41.5055 75.6288 40.9152 74.3368 40.6839 72.9595C40.2865 71.9632 40.3017 70.8497 40.7262 69.8647C41.1 69.1132 42.1473 69.0482 42.6112 69.7477C42.6926 69.8705 42.7483 70.0086 42.7749 70.1535C43.374 68.0059 45.0038 66.298 47.121 65.599C50.2622 64.6273 51.4156 67.2052 54.0626 67.3641C53.9449 66.3845 54.3522 65.4153 55.1345 64.814C55.9553 64.2591 56.8373 63.8004 57.763 63.4471C62.857 61.0157 65.5494 55.5627 67.5879 50.609C69.2054 46.602 71.6902 43.0029 74.8637 40.0702C75.5858 40.5767 91.4981 45.0858 92.2811 45.2003C93.7535 45.539 95.2961 45.3906 96.6768 44.7774C100.28 41.9386 103.724 38.9032 106.993 35.6849C106.764 34.8751 103.277 33.5226 102.631 33.5938ZM42.515 103.454C44.7387 102.613 46.9048 101.627 48.9996 100.502C49.5608 100.245 50.2375 100.95 49.7052 101.417C47.8077 102.9 45.6358 103.992 43.3145 104.632C36.2539 106.915 28.5681 106.223 22.0285 102.717C21.5127 102.446 21.9687 101.685 22.4804 101.944C28.7164 105.003 35.8908 105.544 42.515 103.454ZM67.2237 42.9669C60.1408 48.0702 60.4688 58.2696 53.2869 63.214C52.8423 63.5235 52.4533 62.8117 52.8742 62.5001C59.561 57.5072 58.4273 45.3489 66.9369 42.2747C67.3681 42.1179 67.5445 42.7358 67.2237 42.9669Z" fill="#38A1FF"/>
<path d="M192.928 49.3277C192.015 38.4337 189.94 27.6685 186.739 17.2152C185.726 14.0173 183.556 8.36312 183.116 7.58842C182.94 7.06112 182.259 6.92222 181.89 7.33832C181.782 7.46062 181.718 7.61612 181.71 7.77922C181.426 10.2953 178.478 12.5896 176.248 13.4365C173.112 14.628 169.287 14.0957 166.148 13.2415C153.958 9.92502 148.586 2.76362 148.287 2.29842C147.988 1.83322 147.742 1.67942 147.481 1.96412C145.568 4.02732 145.56 6.20302 141.077 10.6749C132.966 18.7688 121.443 21.7367 107.62 16.6984C107.428 16.2858 106.648 16.4096 106.697 16.9233C107.625 26.8514 109.11 36.8031 110.782 46.6332C114.191 66.675 118.622 80.3663 128.873 98.4109C137.753 114.039 148.408 125.336 164.446 134.13C164.878 134.366 165.652 134.033 165.746 133.978C178.631 126.522 185.898 106.314 189.23 91.8087C192.393 78.0359 194.212 63.4544 192.928 49.3277ZM191.553 64.9687C190.559 80.943 187.633 97.4794 181.001 112.133C177.355 120.189 172.425 127.504 165.284 132.838C163.239 132.25 151.087 123.85 145.198 117.89C139.894 112.43 135.275 106.344 131.443 99.7665C111.422 66.0467 112.654 41.9415 107.867 17.8775C115.228 21.7976 124.706 21.6109 132.268 18.4294C137.761 16.1028 142.475 12.2548 145.855 7.33882C146.711 6.20572 147.42 4.96772 147.962 3.65492C150.536 6.65902 153.618 9.18802 157.066 11.1268C160.48 13.1913 164.257 14.5836 168.194 15.2284C171.488 15.7648 175.236 15.9567 178.208 14.1813C179.964 13.2077 181.459 11.8248 182.567 10.1498C183.356 12.31 184.218 14.4444 184.94 16.6344C189.51 30.6084 192.53 49.2741 191.553 64.9687Z" fill="#38A1FF"/>
<path d="M139.767 50.8854C140.212 51.8644 142.242 51.4703 142.105 50.3841C141.33 43.9696 141.109 33.8363 149.053 31.7824C152.295 30.9447 155.701 32.7366 157.532 35.3187C160.945 40.1311 160.863 44.699 162.526 45.9183C163.313 46.3675 164.314 46.1048 164.78 45.3272C165.965 43.3527 164.462 40.0269 163.68 38.0442C162.819 35.7147 161.515 33.5737 159.841 31.7391C156.813 28.5545 152.33 26.7121 147.961 27.819C143.895 29.0144 140.613 32.0281 139.077 35.9779C138.174 38.254 137.844 40.7171 138.116 43.1505C138.212 45.8053 138.77 48.423 139.767 50.8854Z" fill="#38A1FF"/>
<path d="M104.547 174.564C78.6126 168.588 53.6006 165.314 27.2279 159.351C37.8787 154.368 48.1159 148.545 57.8425 141.937C58.1792 141.739 58.1747 141.25 57.8344 141.058C57.6765 140.968 57.483 140.97 57.3267 141.062C47.9392 146.447 40.5571 151.378 24.5272 158.952C24.0218 159.263 24.0423 160.004 24.564 160.286C24.6104 160.311 24.6592 160.332 24.7098 160.347C51.0618 166.433 77.7894 169.957 104.354 176.094C104.693 176.054 105.02 175.943 105.312 175.767C108.884 173.482 136.776 152.108 155.569 133.996C156.276 133.314 155.212 132.26 154.494 132.921C131.91 153.7 125.488 158.32 104.547 174.564Z" fill="#F8F8FF"/>
<path d="M195.433 105.502C192.807 105.086 190.141 104.978 187.49 105.181C187.029 105.321 186.893 105.907 187.244 106.236C187.314 106.301 187.398 106.35 187.49 106.378C189.56 106.653 191.651 106.74 193.736 106.638C192.409 107.688 186.664 112.18 185.516 113.7C185.206 114.113 185.793 114.596 186.187 114.372C189.085 112.283 191.859 110.027 194.494 107.615C194.574 107.979 194.834 110.906 194.886 112.015C191.236 114.708 108.815 187.965 105.24 191.138C105.24 191.138 55.1655 179.687 30.3258 174.323C23.543 172.859 10.1344 170.357 9.9188 170.084C9.5245 168.406 9.2279 166.707 9.0306 164.994C9.0605 164.955 14.4279 166.493 17.1152 167.186C20.3038 168.012 39.4698 172.728 45.8719 174.225C76.1512 181.3 90.4997 183.829 103.446 186.046C103.619 186.767 103.83 187.478 104.081 188.175C104.27 188.637 105.112 188.653 105.05 188.044C104.976 187.353 104.845 186.669 104.658 185.999C107.004 184.333 109.252 182.533 111.391 180.608C113.588 178.757 140.298 155.474 144.723 151.517C149.122 147.581 153.767 143.747 157.867 139.5C158.531 138.811 157.549 137.885 156.835 138.469C152.262 142.214 148.029 146.47 143.647 150.443C139.321 154.363 113.022 177.383 110.843 179.255C108.663 181.127 103.51 184.659 103.51 184.659C103.51 184.659 74.1489 178.973 67.9728 177.645C55.052 174.854 13.2508 164.757 10.5027 164.191C17.8548 160.139 25.0636 155.777 32.3085 151.545C36.1955 149.276 51.8634 140.329 55.5194 137.743C55.7672 137.544 55.7071 137.151 55.4111 137.036C55.3131 136.998 55.2042 136.999 55.1067 137.038C51.0464 138.905 35.4652 148.004 31.5606 150.239C23.7514 154.699 7.3842 164.15 7.4141 164.406C7.5585 165.58 8.2393 169.956 8.9336 170.893C9.1657 171.202 34.0261 176.62 46.0813 179.314C101.094 191.604 104.923 192.733 105.398 192.336C118.396 181.523 195.964 112.783 195.997 112.68C196.032 112.62 195.79 105.585 195.433 105.502Z" fill="#F8F8FF"/>
<path d="M68.4276 130.303C67.2464 130.26 62.6507 132.965 61.6501 133.86C61.384 134.098 61.6635 134.627 62.0143 134.485C62.0607 134.466 67.9356 131.824 68.7196 131C68.9388 130.77 68.827 130.389 68.5183 130.314C68.4886 130.307 68.4581 130.303 68.4276 130.303Z" fill="#F8F8FF"/>
<path d="M67.2775 136.27C67.9008 136.121 68.4955 135.87 69.0385 135.53C69.2355 135.406 69.2248 135.115 69.0191 135.007C68.9786 134.985 68.9338 134.973 68.888 134.972C68.2528 135.02 67.6299 135.173 67.0444 135.424C66.5111 135.601 66.738 136.45 67.2775 136.27Z" fill="#F8F8FF"/>
<path d="M85.4767 121.801C88.3982 120.347 100 114.357 102.731 112.62C103.162 112.368 103.159 111.744 102.725 111.496C102.524 111.381 102.276 111.383 102.076 111.5C99.1567 112.899 87.9495 119.578 85.1745 121.288C84.9869 121.421 85.0143 121.708 85.2238 121.803C85.3043 121.84 85.3969 121.839 85.4767 121.801Z" fill="#F8F8FF"/>
<path d="M84.4122 126.739C87.7649 124.964 91.1021 123.17 94.4187 121.319C97.5413 119.574 101.008 118.029 103.826 115.813C104.166 115.545 103.798 114.925 103.399 115.078C100.054 116.368 96.9523 118.565 93.8575 120.36C90.576 122.264 87.3306 124.216 84.0935 126.192C83.8916 126.33 83.9149 126.635 84.1354 126.741C84.223 126.783 84.3249 126.782 84.4122 126.739Z" fill="#F8F8FF"/>
<path d="M118.255 103.915C118.833 103.665 121.081 102.595 121.081 102.595C121.081 102.595 128.623 103.657 130.138 103.254C130.399 103.175 130.477 102.843 130.278 102.656C130.26 102.64 130.241 102.625 130.221 102.613C128.904 102.015 122.505 101.581 120.786 101.773C120.314 101.691 118.384 102.899 117.835 103.197C117.352 103.457 117.777 104.121 118.255 103.915Z" fill="#F8F8FF"/>
<path d="M122.208 104.867C120.767 105.455 119.39 106.19 118.099 107.059C117.892 107.277 117.999 107.636 118.291 107.706C118.352 107.721 118.415 107.721 118.475 107.706C119.843 107.243 121.126 106.562 122.276 105.69C123.793 106.126 130.682 106.781 132.373 106.353C132.68 106.27 132.781 105.886 132.556 105.662C132.505 105.612 132.442 105.576 132.373 105.557C130.752 104.903 123.785 104.62 122.208 104.867Z" fill="#F8F8FF"/>
<path d="M56.031 71.8722C53.8647 73.8642 52.177 73.957 50.7327 74.4646C50.3776 74.5741 50.2743 75.027 50.5467 75.2798C50.6323 75.3593 50.7439 75.405 50.8607 75.4085C53.0879 75.6251 57.6207 72.2704 57.2638 71.8536C55.7018 70.1326 54.7551 67.9418 54.5723 65.6248C60.2234 64.0775 63.9227 59.1444 66.642 54.2123C68.2461 51.3074 69.3778 48.1352 71.147 45.3251C73.3895 42.2587 76.0444 39.5163 79.0366 37.1756C85.1343 41.0193 97.8291 38.9819 102.726 34.1458C102.735 34.1351 102.743 34.1237 102.75 34.1117C103.331 34.3397 103.931 34.5244 104.511 34.7544C105.366 35.1695 106.246 35.5326 107.146 35.8417C107.552 35.9449 107.919 35.4043 107.575 35.1031C106.362 34.1494 104.934 33.5073 103.415 33.2328C104.118 30.9303 103.692 27.9304 103.518 25.5773C103.328 22.9571 102.966 20.3523 102.434 17.7795C101.572 13.6057 100.146 9.3968 95.8691 7.6833C91.4755 5.9296 86.4517 7.25311 82.1376 8.62521C80.4182 9.04271 78.8671 9.9748 77.6914 11.297C76.3204 13.0858 76.5174 15.3553 76.6887 17.4721C77.188 23.6534 77.4304 29.8069 78.3743 35.9376C75.626 37.8684 73.1637 40.1772 71.0603 42.7957C69.0951 45.5181 62.0318 63.2873 53.6924 64.4592C53.3947 64.5309 53.1883 64.8019 53.1983 65.108C53.2525 67.64 54.2648 70.0572 56.031 71.8722ZM80.7893 10.6987C83.1045 9.6917 85.5449 9.00121 88.0445 8.64581C90.7484 8.00771 93.5882 8.2939 96.1105 9.4587C98.6771 10.8348 99.7974 13.4706 100.489 16.1589C101.552 20.4483 102.104 24.8483 102.135 29.2673C102.147 30.529 102.309 32.848 102.188 33.0781C102.066 33.3082 95.7701 36.2523 95.2553 36.4225C95.277 36.2822 92.927 21.6583 92.8599 21.3096C94.6673 21.0507 97.1751 20.9764 98.2727 19.3744C99.3335 18.0583 98.6071 16.0864 96.9461 15.7731C95.7639 15.575 82.8566 17.8074 82.1943 18.5666C81.5085 19.404 81.4479 20.5903 82.0447 21.4933C82.4 22.2026 83.1551 22.6204 83.9449 22.5445C85.5977 22.5197 87.2459 22.3634 88.8739 22.0771C90.5019 21.7908 90.9721 34.6719 92.0904 37.2416C87.7777 37.9468 83.3571 37.5645 79.2295 36.1295C79.2295 30.105 78.6105 24.0599 78.1597 18.0539C77.941 15.0675 77.7048 12.2099 80.7934 10.6987H80.7893Z" fill="#F8F8FF"/>
<path d="M106.788 56.9698C105.211 61.7203 105.692 63.0902 102.883 71.0469C102.239 72.4006 101.769 73.8305 101.485 75.3022C99.9602 76.1267 98.3666 76.8171 96.7221 77.3654C90.2117 79.3027 85.128 77.6749 79.1407 74.7565C79.0726 73.9787 75.6106 65.7816 72.8284 55.7834C72.7373 55.5522 72.43 55.5062 72.2752 55.7007C72.2183 55.7722 72.1944 55.8645 72.2094 55.9547C72.7252 58.7627 73.3369 61.5253 74.0962 64.2642C72.2507 65.2834 70.6393 66.8225 68.7762 67.8479C66.5881 68.936 64.3265 69.8695 62.008 70.6415C61.519 70.8282 61.5262 71.7082 62.1441 71.6411C64.6529 71.277 67.0689 70.4366 69.2621 69.1653C71.1977 68.2377 72.9461 66.9621 74.4201 65.402C74.5006 65.6744 77.1167 74.1365 78.1421 75.2022C77.2343 76.2214 76.5194 79.0407 77.2549 79.7412C80.4116 82.7596 85.5727 83.7314 89.8125 84.013C94.437 84.4117 99.0832 83.549 103.256 81.5165C103.936 81.1514 103.47 79.9691 102.721 80.2456C96.3642 82.6007 90.6914 83.5395 83.7509 81.4412C81.9136 80.8862 80.196 80.0537 78.4216 79.3461C78.5877 78.7271 79.0035 76.3988 79.2284 75.8995C83.6002 79.8196 91.3568 80.5613 97.1306 78.8468C98.8928 78.1356 100.604 77.3049 102.253 76.3606C103.903 75.4163 103.215 80.1476 104.007 80.6036C104.249 80.7397 104.556 80.6594 104.7 80.422C105.288 79.6091 103.54 75.5735 102.779 75.0309C104.493 70.6388 105.984 66.1629 107.246 61.6202C108.364 62.3251 109.56 62.8977 110.811 63.3265C111.31 63.4162 111.77 62.8179 111.341 62.4156C110.148 61.5865 108.844 60.9295 107.468 60.4638C107.666 59.3561 107.774 58.2342 107.789 57.109C107.763 56.7128 107.318 56.4932 106.988 56.7138C106.896 56.7754 106.826 56.8652 106.788 56.9698Z" fill="#F8F8FF"/>
<path d="M45.2036 70.7209C45.0334 72.1507 46.2012 72.7841 47.4937 72.3261C49.0177 71.8029 50.0624 70.3957 50.1222 68.7856C50.1114 68.4269 49.7162 68.2144 49.4109 68.4032C49.3501 68.4408 49.2988 68.4919 49.2609 68.5525C48.6687 69.4809 48.1911 70.6559 46.8552 71.0778C45.9453 70.954 47.2049 67.5756 47.405 67.0598C47.8868 65.8157 47.7011 66.2448 52.0142 67.3177C52.3226 67.3936 52.5976 67.1072 52.5092 66.8021C52.4808 66.7043 52.4173 66.6205 52.3309 66.5667C51.3318 66.0021 50.2708 65.5549 49.1691 65.2339C48.4996 65.0275 47.6124 64.651 46.9326 65.0451C46.2197 65.4587 45.3439 69.5397 45.2036 70.7209Z" fill="#F8F8FF"/>
<path d="M42.8227 70.0019C42.7089 68.6814 41.2082 67.9793 40.1216 68.7381C39.8174 68.9506 39.5899 69.2556 39.4731 69.6078C39.2731 70.6739 39.3982 71.7755 39.8321 72.7696C40.1092 74.2481 40.6135 75.6749 41.3269 76.9992C42.2968 78.7646 44.6153 79.2445 46.2063 78.0091C47.6505 76.8063 47.732 74.0798 45.838 73.304C45.3284 73.0977 45.0045 73.7486 45.1923 74.1437C45.6905 75.1887 46.3858 76.3214 45.0066 77.0941C43.746 77.8007 42.7185 76.7846 42.1769 75.7076C41.5388 74.1638 41.0275 72.5706 40.6481 70.9437C40.4614 70.4857 41.0679 69.6202 41.5848 69.8853C41.7601 69.9761 42.0057 70.3031 42.2089 70.3444C42.5627 70.4166 42.8464 70.1453 42.8227 70.0019Z" fill="#F8F8FF"/>
<path d="M55.5347 107.077C55.2254 109.478 56.8777 111.69 59.267 112.074C61.3787 112.365 63.3338 110.91 63.6626 108.804C63.7758 106.839 62.7144 104.994 60.9588 104.103C60.5462 103.813 60.056 103.654 59.5517 103.646C57.5329 97.3432 51.4651 78.4568 50.2375 75.4343C49.9682 74.7709 49.5907 74.0932 48.7737 74.1685C47.9707 74.1997 47.3725 74.921 47.4904 75.7159C48.0472 78.4673 48.764 81.184 49.6371 83.8521C50.3912 86.3588 56.5251 103.721 56.851 104.298C56.1013 105.043 55.6356 106.026 55.5347 107.077Z" fill="#F8F8FF"/>
<path d="M57.8042 137.929C59.886 139.045 67.9572 141.409 70.9715 137.758C71.6038 136.992 70.5784 136.3 70.0595 136.389C68.1268 136.815 66.1578 137.055 64.1795 137.106C58.8152 136.746 53.8965 132.407 54.1121 127.052C54.189 123.836 55.4462 120.761 57.6443 118.413C59.9992 116.124 63.0469 114.682 66.3097 114.312C67.3186 114.148 68.0273 112.216 66.2354 111.902C57.3122 110.34 49.8331 119.348 51.0143 127.892C51.5447 132.13 54.0678 135.86 57.8042 137.929Z" fill="#F8F8FF"/>
<path d="M16.356 13.9214C18.4789 13.0361 20.5514 12.0347 22.5641 10.9215C22.9149 11.8654 23.6226 13.7501 23.6226 13.7501C23.6226 13.7501 18.609 15.7101 19.1599 16.7201C19.685 17.6856 20.143 18.7472 21.0498 18.9659C22.2877 19.265 24.061 18.4501 25.1999 17.9043C29.0632 28.0047 39.2295 54.0256 40.3292 56.9832C41.3608 59.7685 43.7159 66.7369 44.0966 66.3707C44.533 65.9426 45.2757 65.0007 45.7709 64.617C46.1213 64.1768 46.2413 63.596 46.0938 63.0531C43.1145 53.0724 22.6518 0.898507 22.526 0.841807C21.9828 -0.120193 20.6678 -0.290493 19.8975 0.501307C19.0361 1.36481 20.6856 6.07201 20.6856 6.07201C20.6856 6.07201 14.2041 9.61441 14.2134 10.2674C14.2299 11.3991 15.8505 14.1318 16.356 13.9214Z" fill="#F8F8FF"/>
<path d="M106.092 79.0397C105.943 78.9998 105.796 79.112 105.795 79.2666C105.82 80.4726 113.705 91.9181 115.527 94.5445C116.083 95.3461 117.402 94.5961 116.85 93.7719C115.016 91.035 107.255 79.5307 106.092 79.0397Z" fill="#F8F8FF"/>
<path d="M115.67 96.1786C115.899 95.9311 115.774 95.5293 115.445 95.4552C115.38 95.4405 115.312 95.441 115.247 95.4565C113.143 95.9588 111.188 97.04 109.091 97.6156C107.294 98.0861 105.472 98.4584 103.635 98.7307C103.317 97.6548 97.8723 87.3915 96.7024 85.0013C96.5281 84.6443 95.9009 84.8981 96.0515 85.2757C96.3311 85.9761 102.08 99.7046 102.808 99.7572C105.146 99.9089 107.493 99.6456 109.739 98.9793C111.906 98.5169 113.936 97.5582 115.67 96.1786Z" fill="#F8F8FF"/>
<path d="M77.0145 79.6989C77.0769 79.4386 76.8342 79.2084 76.5776 79.2844C76.4966 79.3084 76.4271 79.3612 76.3821 79.4327C75.2256 81.526 74.217 83.6977 73.3636 85.9318C72.4981 88.0094 71.0941 90.4182 70.9095 92.6722C70.8858 92.961 72.3537 94.3454 73.0139 94.8385L73.0077 94.8509C71.187 102.216 70.9136 110.082 70.9219 117.638C70.9217 125.152 71.5059 132.654 72.6694 140.077C71.2633 141.182 70.2132 143.29 64.952 147.085C63.6825 148.004 62.3665 148.858 61.0093 149.643C59.9425 150.173 58.9209 150.79 57.9547 151.486C57.768 151.641 57.0923 152.7 58.2642 152.555C64.1172 152.007 69.8575 150.599 75.3 148.377C77.1349 147.756 78.846 146.816 80.3548 145.601C80.5931 145.369 80.4796 143.007 79.9009 143.007C79.3222 143.007 79.2654 143.638 79.2933 144.069C79.3011 144.247 79.3197 144.424 79.349 144.6C79.0488 144.733 78.7506 144.874 78.4577 145.028C78.3091 143.597 76.4306 140.303 74.125 140.247C74.125 140.216 72.2743 124.999 72.233 117.374C72.1928 109.928 72.9232 102.584 73.4771 95.1728C74.4592 95.8464 80.8015 99.1795 82.9678 99.1042C83.9994 99.0681 88.167 87.8154 88.3187 85.4159C88.3105 85.0237 87.8808 84.7874 87.5452 84.9906C87.4757 85.0327 87.4173 85.0908 87.3748 85.1601C85.5941 89.3024 84.078 93.5536 82.8358 97.8879C81.0398 96.8934 73.833 93.4521 72.1526 92.634C72.6395 91.8077 76.3316 82.0221 77.0145 79.6989ZM65.3616 148.52C65.6529 149.048 66.0345 149.52 66.4891 149.916C64.6735 150.412 62.8486 150.832 61.0124 151.246C62.5138 150.422 63.966 149.512 65.3616 148.52ZM77.947 145.301C75.2419 146.935 72.3332 148.206 69.2961 149.08C68.5739 149.318 67.8405 149.535 67.1101 149.741C66.8992 149.083 66.6431 148.441 66.3436 147.818C67.2504 147.155 68.2242 146.431 69.1651 145.641C70.4968 146.26 70.7351 147.189 71.3551 147.684C71.5914 147.875 72.0772 147.865 72.136 147.478C72.3197 146.19 71.2179 145.284 70.0656 144.853C71.302 143.779 72.3443 142.5 73.147 141.073C74.1418 141.455 75.0867 141.957 75.9612 142.566C76.8223 143.314 77.5 144.25 77.9419 145.302L77.947 145.301Z" fill="#F8F8FF"/>
<path d="M87.4359 99.1805C86.7108 98.8626 85.9237 98.711 85.1324 98.7369C84.7491 98.8482 84.6223 99.3275 84.9003 99.6138C85.541 100.035 86.2916 100.258 87.0583 100.255C86.9913 100.448 85.9236 103.583 85.4779 104.966C84.9432 104.08 83.9922 103.529 82.9578 103.507C82.6662 103.589 82.5301 103.924 82.6813 104.187C83.1362 104.89 83.9904 104.929 85.0632 106.278C81.961 116.015 80.0395 126.089 79.34 136.284C79.3131 136.77 80.1322 136.894 80.2034 136.4C81.2555 128.606 82.7471 120.878 84.6712 113.253C87.9589 100.617 90.2872 96.7748 92.4763 90.8535C96.2075 97.1462 106.517 117.621 108.13 121.47C108.949 123.43 111.852 131.223 113.035 132.806C113.291 133.148 114.031 133.108 113.963 132.555C113.643 129.913 106.71 114.304 105.765 112.232C106.717 112.565 107.737 112.649 108.73 112.477C109.203 112.383 109.082 111.783 108.73 111.635C107.552 111.213 106.33 110.925 105.088 110.776C104.888 110.347 96.9627 94.2701 91.4591 88.0207C91.2394 87.7721 90.8401 88.0919 91.0052 88.3715C91.2267 88.747 91.4491 89.1225 91.6726 89.498C90.7648 90.9133 87.4359 99.1805 87.4359 99.1805Z" fill="#F8F8FF"/>
<path d="M74.4396 110.444C74.2858 110.206 73.9329 110.224 73.8044 110.476C73.7502 110.582 73.7508 110.708 73.8062 110.814C76.1036 115.118 81.8805 112.943 82.8605 108.82C83.4439 106.652 82.8631 104.336 81.3255 102.7C79.6306 101.175 76.706 101.238 74.7522 102.202C74.3208 102.469 74.3405 103.103 74.7876 103.343C74.8784 103.392 74.9793 103.419 75.0823 103.421C76.5967 103.405 77.9914 102.747 79.4882 103.356C81.1924 104.051 81.667 106.18 81.4751 107.843C81.0913 111.16 76.8164 113.712 74.4396 110.444Z" fill="#F8F8FF"/>
<path d="M79.0912 142.242C80.3684 142.38 81.5697 141.611 81.9795 140.394C82.3567 139.163 81.7236 137.849 80.526 137.377C80.2802 137.308 80.0159 137.378 79.8369 137.56C79.4459 138.018 79.7018 138.396 80.0566 138.77C81.5773 140.375 78.9457 141.611 78.1823 139.893C77.9487 139.059 78.2455 138.165 78.9323 137.636C79.1321 137.432 79.0354 137.088 78.7585 137.017C78.6977 137.001 78.634 137.002 78.5733 137.017C76.6096 137.695 76.1163 140.245 77.6853 141.606C78.082 141.951 78.5705 142.172 79.0912 142.242Z" fill="#F8F8FF"/>
<path d="M114.099 133.037C112.887 133.302 112.08 134.452 112.242 135.682C112.438 137.781 114.832 138.881 116.552 137.662C117.152 137.237 117.555 136.588 117.672 135.862C117.93 134.449 116.923 133.117 115.493 132.981C114.999 132.996 114.707 133.54 114.967 133.96C115.019 134.043 115.089 134.114 115.172 134.166C115.696 134.491 116.278 134.964 116.15 135.656C115.999 136.32 115.343 136.742 114.676 136.603C114.046 136.442 113.587 135.899 113.534 135.25C113.586 134.576 113.87 133.941 114.338 133.453C114.442 133.269 114.311 133.041 114.099 133.037Z" fill="#F8F8FF"/>
<path d="M103.813 107.161C103.594 107.424 103.71 107.966 104.129 107.924C105.542 107.551 106.867 106.898 108.024 106.006C108.286 105.672 108.162 105.04 107.64 105.077C106.237 105.507 104.936 106.216 103.813 107.161Z" fill="#F8F8FF"/>
<path d="M122.1 135.813C122.113 135.733 119.157 127.395 117.816 123.288C117.172 121.318 114.91 113.434 114.012 111.678C116.246 110.779 117.358 106.537 115.235 103.475C114.535 102.505 113.612 101.717 112.545 101.178C112.549 100.41 112.33 99.6574 111.915 99.0113C111.652 98.7559 111.211 98.8724 111.108 99.2249C111.031 99.7477 111.117 100.281 111.354 100.754C110.762 100.61 110.141 100.641 109.567 100.842C109.144 100.975 109.024 101.514 109.35 101.814C109.412 101.871 109.486 101.914 109.567 101.939C110.933 102.505 112.212 102.482 113.351 103.608C114.541 104.806 115.059 106.516 114.733 108.173C114.642 108.893 114.33 109.567 113.84 110.103C112.653 111.096 111.593 109.647 111.055 108.762C110.314 107.303 109.857 105.717 109.707 104.088C109.652 103.805 109.244 103.84 109.169 104.088C108.283 107.03 110.389 112.128 113.317 111.847C113.445 113.82 115.941 121.854 116.606 123.911C117.912 127.956 121.027 136.213 121.099 136.264C119.147 137.554 117.852 139.627 117.549 141.946C117.033 141.68 116.526 141.408 116.029 141.121C115.72 140.946 115.341 141.395 115.639 141.627C119.656 144.802 124.484 146.784 129.573 147.347C130.963 147.527 133.053 147.876 134.392 147.25C134.835 147.07 134.985 146.517 134.692 146.139C132.763 144.345 130.73 142.665 128.606 141.108C126.577 139.407 122.247 135.831 122.1 135.813ZM121.965 137.308C123.238 138.384 124.488 139.489 125.742 140.587C124.416 141.478 123.605 142.958 123.567 144.555C121.782 143.958 120.044 143.226 118.368 142.367C118.513 140.737 120.215 138.419 121.965 137.308ZM124.544 144.781C124.596 144.744 125.158 143.253 125.536 142.615C125.818 142.133 126.179 141.701 126.603 141.338C128.422 143.032 130.368 144.584 132.425 145.98C129.749 146.029 127.085 145.624 124.544 144.781Z" fill="#F8F8FF"/>
<path d="M170.77 65.1214C170.546 63.1552 168.862 49.0997 167.31 47.997C166.334 47.3048 165.104 47.7298 163.991 47.9846C155.94 49.8342 138.568 53.8451 138.067 54.2474C136.739 55.3151 139.214 63.3522 139.786 65.3515C140.782 68.8259 141.931 78.1432 150.411 81.8766C156.513 84.5587 163.871 83.9872 167.961 78.2381C170.462 74.7266 171.248 69.3107 170.77 65.1214ZM154.671 70.0916C154.89 68.0284 155.124 65.7115 155.2 65.0564C152.493 64.368 151.532 61.0168 153.464 58.9989C154.919 57.5191 157.29 57.4733 158.801 58.8957C160.147 60.2972 160.158 62.507 158.826 63.9217C159.755 64.7067 160.589 66.2572 162.178 67.8469C162.363 68.1295 162.58 68.6453 161.219 69.2437C159.532 69.8509 157.801 70.3272 156.041 70.6683C154.884 70.9035 154.644 70.3392 154.671 70.0916Z" fill="#38A1FF"/>
</svg>
