<svg width="16" height="20" viewBox="0 0 16 20" fill="none" xmlns="http://www.w3.org/2000/svg">
<path d="M0 13.6364V15.4545C0.596918 15.4545 1.18799 15.5721 1.73947 15.8005C2.29095 16.029 2.79204 16.3638 3.21412 16.7859C3.63621 17.208 3.97102 17.709 4.19945 18.2605C4.42788 18.812 4.54545 19.4031 4.54545 20H6.36364C6.36364 18.3123 5.69318 16.6936 4.49977 15.5002C3.30636 14.3068 1.68774 13.6364 0 13.6364ZM0 17.2727V20H2.72727C2.72727 19.2767 2.43994 18.583 1.92847 18.0715C1.41701 17.5601 0.723318 17.2727 0 17.2727ZM0 10V11.8182C2.16995 11.8182 4.25103 12.6802 5.78542 14.2146C7.31981 15.749 8.18182 17.83 8.18182 20H10C10 14.4727 5.52727 10 0 10ZM13.6364 0H4.54545C4.06324 0 3.60078 0.191558 3.25981 0.532533C2.91883 0.873508 2.72727 1.33597 2.72727 1.81818V8.51818C3.35455 8.66364 3.96364 8.85455 4.54545 9.09091V3.63636H13.6364V15.4545H10.8818C11.3636 16.5909 11.6455 17.8091 11.7455 19.0909H13.6364C14.1186 19.0909 14.581 18.8994 14.922 18.5584C15.263 18.2174 15.4545 17.7549 15.4545 17.2727V1.81818C15.4545 1.33597 15.263 0.873508 14.922 0.532533C14.581 0.191558 14.1186 0 13.6364 0Z" fill="#F8F8FF"/>
</svg>
