<svg width="190" height="172" viewBox="0 0 190 172" fill="none" xmlns="http://www.w3.org/2000/svg">
<g opacity="0.5">
<path d="M135.513 0.652574L133.469 0.626574C133.469 0.739574 133.434 5.39857 133.34 7.56057C133.34 7.92257 132.822 7.89657 132.796 7.56057C132.64 5.01857 132.624 4.02457 132.486 0.600574L97.4307 0.000574575C97.2164 -0.00514733 97.003 0.0319154 96.8032 0.109596C96.6034 0.187277 96.421 0.304018 96.2668 0.452992C96.1127 0.601966 95.9897 0.780183 95.9052 0.977225C95.8207 1.17427 95.7763 1.38618 95.7747 1.60057C95.7067 7.63257 95.0987 26.4356 97.4047 32.0766C100.121 38.7516 112.565 50.0056 115.747 50.2636C119.437 50.2636 135.247 36.0336 136.004 32.5686C136.704 29.5686 137.039 8.63757 137.142 2.29957C137.134 1.86837 136.96 1.45678 136.657 1.15015C136.353 0.843512 135.944 0.665343 135.513 0.652574ZM100.2 4.84358C100.049 5.03258 99.3837 11.3436 99.3717 11.4436C99.3457 11.7286 98.9057 11.7546 98.9057 11.4436C98.8947 10.7796 98.9847 4.73657 99.6057 3.99257C100.162 3.33057 105.917 3.63258 106.772 3.73458C106.857 3.73458 106.939 3.76861 107 3.82918C107.061 3.88975 107.095 3.97191 107.095 4.05757C107.095 4.14324 107.061 4.2254 107 4.28597C106.939 4.34654 106.857 4.38057 106.772 4.38057C102.907 4.88157 100.9 3.97557 100.2 4.84358ZM114.714 31.6196C114.593 31.7391 114.43 31.8062 114.261 31.8062C114.091 31.8062 113.928 31.7391 113.808 31.6196C111.254 29.3639 108.931 26.8595 106.874 24.1436C106.461 23.5996 107.237 22.9796 107.754 23.2636C109.694 24.3506 111.661 25.4366 113.601 26.5236C128.669 14.0896 129.13 14.0966 130.107 13.1236C130.495 12.7356 131.038 13.3046 130.702 13.7186C125.552 19.8492 120.223 25.8162 114.714 31.6196ZM132.176 32.3196C130.676 34.1416 129.36 35.0906 121.595 41.4516C121.362 41.6586 121 41.3226 121.233 41.0896C129.963 33.5896 130.38 33.3346 131.659 31.8276C131.968 31.4646 132.435 31.9576 132.176 32.3196ZM133.314 10.2276C133.456 10.233 133.591 10.2921 133.692 10.393C133.793 10.4939 133.851 10.6291 133.857 10.7716C133.857 10.8792 133.825 10.9844 133.765 11.0739C133.705 11.1634 133.62 11.2331 133.521 11.2743C133.421 11.3154 133.312 11.3261 133.206 11.305C133.101 11.284 133.004 11.2321 132.928 11.1559C132.852 11.0797 132.8 10.9827 132.779 10.8771C132.758 10.7715 132.769 10.6621 132.81 10.5627C132.852 10.4633 132.922 10.3784 133.011 10.3188C133.101 10.2591 133.206 10.2274 133.314 10.2276ZM133.132 29.6566C133.113 29.7195 133.07 29.7727 133.013 29.8048C132.955 29.8369 132.888 29.8455 132.824 29.8288C132.76 29.8121 132.706 29.7714 132.672 29.7152C132.637 29.659 132.626 29.5917 132.641 29.5276C132.977 27.6011 133.211 25.658 133.341 23.7066C133.344 23.6509 133.369 23.5988 133.41 23.5607C133.451 23.5226 133.504 23.5014 133.56 23.5014C133.616 23.5014 133.67 23.5226 133.71 23.5607C133.751 23.5988 133.776 23.6509 133.78 23.7066C133.897 25.7112 133.678 27.7243 133.132 29.6566Z" fill="#C9DFFF"/>
<path d="M184.693 71.1276C184.28 67.1357 183.553 63.1826 182.52 59.3046C181.78 56.2685 180.395 53.4275 178.458 50.9746C178.41 50.895 178.34 50.8309 178.256 50.7898C178.173 50.7488 178.079 50.7326 177.987 50.7431C177.894 50.7537 177.807 50.7905 177.735 50.8492C177.662 50.9079 177.608 50.9862 177.579 51.0746C177.251 52.2984 176.8 53.4861 176.233 54.6196C175.76 54.9976 175.007 54.8726 172.741 55.6286C172.548 54.4221 172.218 53.2415 171.758 52.1096C170.204 48.4096 166.985 48.6336 165.005 51.1786C163.833 52.7111 163.029 54.4931 162.657 56.3864C162.285 58.2796 162.354 60.2332 162.858 62.0956C162.883 62.1701 162.935 62.2326 163.003 62.2702C163.072 62.3078 163.153 62.3178 163.229 62.298C163.305 62.2782 163.37 62.2302 163.412 62.1638C163.454 62.0974 163.468 62.0175 163.453 61.9406C162.494 57.8906 164.41 52.6796 166.428 50.9976C170.801 47.3976 171.913 55.9386 172.068 58.4226C172.146 62.2554 172.016 66.0897 171.68 69.9086C171.406 68.7249 170.915 67.6023 170.231 66.5976C168.82 64.9305 167.183 63.4678 165.368 62.2516C165.187 62.1216 164.954 62.4326 165.135 62.5616C171.966 68.1806 170.081 69.3866 171.758 72.8836C171.847 74.479 172.498 75.9914 173.595 77.1526C173.931 77.4636 174.5 77.0526 174.241 76.6616C173.081 74.9189 172.501 72.8537 172.585 70.7616C172.624 67.7346 173.597 61.2616 172.896 56.2996C174.209 56.0956 175.505 55.8019 176.777 55.4206C178.033 57.9166 178.947 60.5705 179.493 63.3106C179.545 63.6216 180.01 63.4916 179.959 63.1816C179.78 61.6886 179.494 60.2102 179.105 58.7576C179.028 58.4986 177.717 55.3856 177.475 54.9286C177.599 54.0147 177.86 53.1248 178.251 52.2896C179.731 54.2691 180.828 56.5075 181.485 58.8896C182.403 62.4005 183.128 65.9588 183.658 69.5486C183.788 70.5836 184.124 72.1876 183.581 73.1186C182.611 74.6856 179.361 74.2906 176.363 75.8616C175.819 76.1456 176.285 76.9736 176.854 76.6896C179.224 75.4606 183.284 75.3696 184.46 73.9206C184.808 73.032 184.889 72.0614 184.693 71.1276Z" fill="#C9DFFF"/>
<path d="M113.5 86.2336C113.487 85.9961 113.422 85.7642 113.311 85.5542C113.199 85.3442 113.043 85.1611 112.853 85.0176L91.6099 67.8916C91.3534 67.6778 91.1719 67.3877 91.0919 67.0636C90.6977 64.5767 89.383 62.329 87.4087 60.7663C85.4344 59.2036 82.9448 58.4402 80.4339 58.6276C80.4022 59.1985 80.4357 59.7712 80.5339 60.3346C82.6419 60.7566 81.1849 64.4716 79.2919 63.3346C78.3529 62.7536 78.5309 61.1916 79.2399 60.9546C79.1399 60.2816 78.6709 59.6616 78.5939 58.9626V58.8626C77.211 59.1827 75.9322 59.8491 74.8777 60.7994C73.8232 61.7496 73.0277 62.9523 72.5659 64.2946C72.2022 65.582 72.214 66.9466 72.5999 68.2276V68.2536C73.4139 70.1866 74.8829 71.3186 77.0239 73.1166C77.2309 73.2726 76.9979 73.6606 76.7649 73.5566C74.8738 72.8199 73.2688 71.496 72.1859 69.7796C71.6599 72.4076 71.7979 75.1346 73.6089 77.1266C75.9089 79.6626 80.0249 79.9986 81.6799 80.0266C81.8936 80.0367 82.0954 80.1281 82.2441 80.282C82.3927 80.4358 82.4771 80.6406 82.4799 80.8546C82.3119 91.4326 82.4279 90.8416 82.0659 91.2026C81.983 91.2792 81.8848 91.3374 81.7777 91.373C81.6706 91.4087 81.5572 91.4212 81.4449 91.4096L78.3669 91.1506C78.2214 91.1369 78.0747 91.1534 77.9359 91.1989C77.7971 91.2444 77.6691 91.318 77.5599 91.4151C77.4507 91.5121 77.3627 91.6306 77.3013 91.7632C77.2399 91.8958 77.2064 92.0395 77.2029 92.1856L77.1509 93.2986C77.1406 93.5705 77.2335 93.8362 77.411 94.0425C77.5885 94.2487 77.8375 94.3802 78.1079 94.4106L81.4969 94.7726C81.5144 94.3566 81.5578 93.9421 81.6269 93.5316C81.6779 93.3236 82.0149 93.3236 82.0409 93.5316C82.3125 94.5696 82.3741 95.6514 82.2219 96.7136C82.2071 96.9122 82.1197 97.0984 81.9764 97.2367C81.8331 97.375 81.6439 97.4558 81.4449 97.4636L78.5739 97.5636C78.2958 97.58 78.0343 97.7014 77.8422 97.9031C77.6501 98.1049 77.5417 98.372 77.5389 98.6506L77.5649 100.074C77.5693 100.349 77.6789 100.613 77.8714 100.81C78.0638 101.007 78.3245 101.123 78.5999 101.135L81.7299 101.235C81.7559 100.692 81.7819 100.149 81.8079 99.6346C81.8339 99.3756 82.2219 99.2986 82.2729 99.5826C83.1639 103.504 82.8379 105.483 85.2999 105.483C85.7156 105.506 86.1242 105.367 86.4389 105.095C87.1629 104.448 87.3699 102.895 87.1629 99.7396C86.9039 95.7806 86.3629 81.1396 86.1799 76.2746C84.634 76.4022 83.0776 76.2711 81.5749 75.8866C81.5211 75.8709 81.4746 75.8367 81.4436 75.7901C81.4125 75.7435 81.3989 75.6874 81.4051 75.6317C81.4113 75.5761 81.4369 75.5244 81.4775 75.4857C81.5181 75.4471 81.571 75.424 81.6269 75.4206C83.4379 75.2036 85.1139 75.4806 86.4899 75.1356C87.2632 74.7713 88.007 74.3477 88.7149 73.8686C88.9596 73.7037 89.2479 73.6157 89.5429 73.6157C89.8379 73.6157 90.1262 73.7037 90.3709 73.8686L99.0379 79.8186C99.3568 80.041 99.576 80.3795 99.6485 80.7615C99.721 81.1435 99.6411 81.5387 99.4259 81.8626L97.7179 84.3456C97.4631 84.718 97.3638 85.1752 97.4411 85.6197C97.5184 86.0643 97.7663 86.4611 98.1319 86.7256L98.5719 87.0366C98.9407 87.2964 99.3945 87.4063 99.8413 87.3439C100.288 87.2815 100.694 87.0515 100.978 86.7006C102.262 85.0256 102.244 85.0196 102.453 84.8636C102.215 84.7111 101.997 84.5286 101.806 84.3206C101.677 84.1646 101.754 83.8546 101.987 83.8796C102.087 83.8916 104.623 84.5906 104.859 85.8466C104.897 86.0456 104.891 86.2504 104.841 86.4469C104.792 86.6433 104.701 86.8268 104.574 86.9846L103.306 88.6666C103.047 89.0118 102.925 89.4405 102.963 89.8702C103.002 90.2999 103.197 90.7004 103.513 90.9946C103.713 91.2391 103.961 91.4408 104.241 91.5875C104.521 91.7342 104.828 91.823 105.143 91.8486C105.416 91.8551 105.686 91.7947 105.93 91.6726C106.174 91.5506 106.384 91.3707 106.543 91.1486C108.143 88.9926 108.128 88.9016 108.587 88.6396C108.069 88.2865 107.576 87.8975 107.112 87.4756C106.957 87.3206 107.164 87.1126 107.345 87.1906C109.345 88.0646 110.876 89.8906 112.261 88.3806C113.207 87.3356 113.543 87.1096 113.5 86.2336ZM85.6109 100.204C85.5181 100.204 85.429 100.167 85.3634 100.101C85.2978 100.035 85.2609 99.9464 85.2609 99.8536C85.2609 99.7607 85.2978 99.6717 85.3634 99.6061C85.429 99.5404 85.5181 99.5036 85.6109 99.5036C85.7037 99.504 85.7926 99.5412 85.8579 99.6072C85.9233 99.6731 85.9598 99.7622 85.9594 99.8551C85.959 99.9479 85.9217 100.037 85.8558 100.102C85.7899 100.167 85.7037 100.204 85.6109 100.204ZM85.1449 85.5866C85.1449 85.5386 85.164 85.4925 85.1979 85.4586C85.2319 85.4246 85.2779 85.4056 85.3259 85.4056C85.3739 85.4056 85.4199 85.4246 85.4539 85.4586C85.4878 85.4925 85.5069 85.5386 85.5069 85.5866C85.7919 89.4416 85.9729 93.4516 85.8949 97.3316C85.8949 97.383 85.8745 97.4324 85.8381 97.4688C85.8017 97.5051 85.7523 97.5256 85.7009 97.5256C85.6494 97.5256 85.6001 97.5051 85.5637 97.4688C85.5273 97.4324 85.5069 97.383 85.5069 97.3316C85.1456 93.4277 85.0267 89.5054 85.1449 85.5866Z" fill="#C9DFFF"/>
<path d="M154.916 103.464C154.953 103.398 154.966 103.321 154.951 103.246C154.936 103.172 154.896 103.106 154.836 103.059C154.777 103.012 154.703 102.988 154.627 102.991C154.551 102.994 154.479 103.024 154.424 103.076C151.979 105.459 147.08 111.055 141.256 113.114C142.549 109.621 142.834 105.896 143.481 102.248C143.533 101.963 143.093 101.834 143.015 102.119C142.115 105.919 141.773 109.906 140.247 113.528C140.21 113.595 140.194 113.671 140.2 113.747C140.207 113.823 140.235 113.895 140.281 113.956C140.328 114.016 140.391 114.061 140.463 114.086C140.535 114.111 140.613 114.115 140.687 114.097C143.531 113.146 146.172 111.672 148.474 109.751C150.725 108.043 153.477 105.965 154.916 103.464Z" fill="#F8F8FF"/>
<path d="M135.668 99.1426C137.234 97.3068 138.957 95.6105 140.816 94.0726C140.876 94.0338 140.918 93.9734 140.933 93.9043C140.949 93.8351 140.937 93.7626 140.9 93.702C140.863 93.6415 140.804 93.5977 140.735 93.5799C140.667 93.5621 140.594 93.5716 140.532 93.6066C138.519 95.0259 136.693 96.6948 135.099 98.5736C133.65 100.074 131.761 101.679 130.699 103.49C130.66 103.556 130.642 103.633 130.647 103.71C130.652 103.787 130.68 103.861 130.728 103.922C130.775 103.983 130.839 104.029 130.913 104.053C130.986 104.078 131.065 104.079 131.139 104.059C134.502 103.309 137.709 101.959 141.099 101.317C141.435 101.265 141.28 100.774 140.969 100.799C137.869 101.265 134.941 102.351 131.915 103.076C133.093 101.697 134.346 100.384 135.668 99.1426Z" fill="#F8F8FF"/>
<path d="M159.417 69.5466C157.497 69.9596 155.64 70.6336 153.777 71.2286C153.671 71.2597 153.581 71.3316 153.528 71.4284C153.475 71.5253 153.462 71.6394 153.493 71.7456C153.762 72.8656 154.313 73.8983 155.093 74.7456C155.138 74.7899 155.196 74.8179 155.258 74.8253C155.321 74.8327 155.384 74.8189 155.437 74.7862C155.491 74.7535 155.532 74.7037 155.554 74.6449C155.576 74.5861 155.578 74.5215 155.559 74.4616C155.264 73.5686 154.891 72.703 154.446 71.8746C156.18 71.2796 157.939 70.7096 159.594 69.9596C159.857 69.8576 159.675 69.4916 159.417 69.5466Z" fill="#F8F8FF"/>
<path d="M154.554 79.3516C154.138 79.2149 153.763 78.9782 153.461 78.6625C153.158 78.3467 152.938 77.9614 152.82 77.5406C152.804 77.4973 152.775 77.4606 152.735 77.4367C152.696 77.4127 152.65 77.403 152.605 77.4091C152.559 77.4152 152.517 77.4367 152.486 77.4702C152.454 77.5036 152.435 77.5468 152.432 77.5926C152.562 79.6366 155.019 80.7746 156.832 80.1276C157.039 80.0506 157.091 79.6886 156.832 79.6366C156.065 79.6111 155.303 79.5157 154.554 79.3516Z" fill="#F8F8FF"/>
<path d="M162.651 73.2466C163.486 73.1695 164.261 72.7816 164.824 72.1596C165.564 70.8286 163.396 70.7326 162.082 71.9266C161.513 72.4956 161.8 73.3346 162.651 73.2466Z" fill="#F8F8FF"/>
<path d="M161.306 67.1926C162.015 65.9466 159.974 65.6776 158.564 66.9596C157.969 67.5026 158.253 68.3596 159.107 68.2536C159.528 68.2398 159.94 68.1383 160.319 67.9556C160.698 67.7728 161.034 67.5129 161.306 67.1926Z" fill="#F8F8FF"/>
<path d="M166.764 72.0046C166.816 72.2376 167.127 72.2376 167.256 72.0566C168.007 70.9436 166.946 69.4176 165.963 68.9256C165.756 68.8256 165.497 69.1066 165.704 69.2626C166.945 70.3276 166.614 71.2486 166.764 72.0046Z" fill="#F8F8FF"/>
<path d="M163.169 65.8216C163.401 66.1576 163.505 66.6496 163.841 66.8566C163.875 66.8746 163.912 66.8849 163.95 66.8866C163.988 66.8883 164.025 66.8814 164.06 66.8664C164.095 66.8513 164.126 66.8286 164.151 66.7999C164.176 66.7712 164.194 66.7372 164.203 66.7006C164.183 66.1678 163.983 65.6575 163.636 65.2533C163.288 64.8491 162.813 64.5749 162.289 64.4756C162.245 64.4777 162.203 64.4924 162.167 64.5181C162.131 64.5437 162.103 64.5792 162.087 64.6202C162.07 64.6612 162.066 64.7061 162.075 64.7494C162.083 64.7927 162.104 64.8327 162.134 64.8646C162.418 65.2276 162.883 65.4076 163.169 65.8216Z" fill="#F8F8FF"/>
<path d="M169.662 80.1026C171.177 79.7146 173.419 82.3756 170.826 83.9306C169.74 84.6036 167.67 85.0436 166.972 83.6466C166.687 83.1036 165.782 83.6466 166.144 84.1126C167.508 87.1566 174.119 84.6596 172.611 81.2926C172.068 80.1026 170.852 79.1186 169.533 79.6626C169.474 79.6797 169.425 79.7193 169.396 79.7726C169.367 79.826 169.36 79.8887 169.377 79.9471C169.394 80.0054 169.434 80.0546 169.487 80.0837C169.541 80.1129 169.603 80.1197 169.662 80.1026Z" fill="#F8F8FF"/>
<path d="M190 102.688C189.895 95.0216 186.13 82.4756 182.006 75.9106C181.973 75.8598 181.922 75.8235 181.864 75.809C181.805 75.7945 181.743 75.803 181.69 75.8327C181.637 75.8624 181.598 75.9111 181.58 75.9688C181.561 76.0266 181.566 76.0891 181.592 76.1436C185.514 83.7209 188.004 91.9562 188.939 100.437C189.172 103.257 189.482 107.293 187.309 109.492C184.334 112.519 179.651 114.174 175.693 115.416C170.232 117.097 164.539 117.901 158.825 117.796C158.515 117.796 158.463 118.262 158.748 118.314C163.741 119.374 169.303 118.214 174.115 116.865C175.59 116.451 177.115 115.985 178.591 115.442C175.797 119.469 172.142 126.442 164.983 132.642C159.989 137.014 150.508 143.256 144.816 136.607C152.354 132.174 159.072 126.474 164.672 119.759C165.06 119.293 164.388 118.594 163.999 119.086C153.293 132.048 135.699 143.378 111.637 148.631C112.051 142.578 111.938 136.501 111.3 130.469C113.566 129.278 120.148 124.242 122.166 122.682C127.41 118.534 134.38 112.408 138.749 107.03C140.328 105.09 142.164 103.02 143.07 100.64C144.596 100.428 153.103 99.2176 155.152 98.6996C155.164 98.7431 155.187 98.7827 155.218 98.8145C155.25 98.8464 155.29 98.8691 155.333 98.8806C159.614 99.7706 167.12 100.054 171.01 98.3366C171.725 98.04 172.345 97.5525 172.801 96.9274C173.258 96.3024 173.533 95.5638 173.598 94.7926C173.956 92.3726 173.86 89.9071 173.313 87.5226C173.291 87.4483 173.242 87.3843 173.177 87.342C173.112 87.2996 173.034 87.2814 172.957 87.2907C172.88 87.3 172.809 87.3362 172.755 87.3928C172.702 87.4495 172.671 87.523 172.666 87.6006C172.332 91.5596 174.166 96.1586 170.157 97.6906C167.413 98.5799 164.523 98.9313 161.645 98.7256C161.606 97.1838 162.039 95.6669 162.887 94.3786C162.939 94.4046 162.965 94.4046 163.016 94.4306C164.284 94.9216 167.182 94.8706 167.285 92.9306C167.385 90.6796 164.129 92.1026 163.327 92.8006C163.108 92.9944 162.9 93.2018 162.706 93.4216C162.072 93.0201 161.557 92.4557 161.216 91.7871C160.875 91.1186 160.719 90.3707 160.766 89.6216C161.25 89.8978 161.787 90.0682 162.342 90.1218C162.897 90.1753 163.457 90.1108 163.985 89.9323C164.513 89.7538 164.997 89.4655 165.405 89.0863C165.814 88.7072 166.137 88.2458 166.354 87.7326C167.607 84.3066 161.924 84.3416 160.326 88.2246C158.792 86.3706 159.304 83.2656 163.275 81.6246C164.732 80.9958 166.367 80.9131 167.88 81.3916C167.128 82.1446 167.449 82.9276 168.191 83.0996C169.096 83.3316 169.591 82.4526 169.769 81.6996C169.983 80.8456 169.093 80.9206 168.501 80.9756C165.034 78.9316 158.67 81.8556 158.748 86.0756C158.785 87.2083 159.257 88.2831 160.067 89.0756C159.912 90.0212 160.034 90.9915 160.42 91.8687C160.806 92.7459 161.438 93.4921 162.24 94.0166C161.284 95.3729 160.827 97.0185 160.947 98.6736C159.213 98.5956 157.48 98.4666 155.824 98.3886C156.33 97.8886 158.56 95.6746 159.291 95.0516C159.498 94.8706 159.239 94.5606 159.006 94.6896C157.654 95.653 156.398 96.7444 155.255 97.9486C153.228 98.1136 148.68 99.2486 143.303 99.9926C143.246 97.6984 143.597 95.4123 144.338 93.2406C146.531 91.4256 146.902 90.2186 152.021 85.4276C152.599 85.863 153.204 86.2605 153.832 86.6176C153.911 86.6585 154.002 86.668 154.087 86.6442C154.173 86.6205 154.246 86.5651 154.292 86.4895C154.338 86.4138 154.353 86.3235 154.335 86.2368C154.317 86.1501 154.267 86.0735 154.194 86.0226C152.119 84.8168 150.363 83.1315 149.072 81.1076C147.672 78.6236 146.872 75.3636 148.451 72.7766C150.234 69.8176 153.409 68.8036 161.8 62.9196C161.833 62.8984 161.857 62.8652 161.866 62.827C161.875 62.7888 161.868 62.7487 161.848 62.7151C161.828 62.6815 161.796 62.657 161.758 62.6468C161.72 62.6366 161.68 62.6416 161.645 62.6606C158.515 64.4466 155.462 66.3086 152.435 68.2496C150.365 69.5686 148.166 71.1496 147.261 73.5266C146.278 76.0876 147.106 79.0376 148.348 81.3656C149.16 82.8306 150.27 84.1089 151.607 85.1176C150.295 86.2404 149.043 87.4321 147.856 88.6876C146.452 90.0215 145.139 91.4473 143.924 92.9556C143.896 92.9867 143.878 93.026 143.874 93.0679C143.869 93.1097 143.878 93.1519 143.898 93.1886C142.823 95.4235 142.41 97.9195 142.708 100.382C142.711 100.457 142.738 100.529 142.785 100.588C141.621 102.917 139.577 105.038 137.896 106.979C132.651 113.088 123.496 120.867 116.345 126.045C114.715 127.21 112.956 128.27 111.352 129.486C111.068 127.003 110.652 124.519 110.136 122.086C122.091 114.303 131.597 100.614 133.036 95.2856C133.165 94.8196 132.467 94.4856 132.236 94.9496C131.563 96.2166 130.968 97.4846 130.322 98.7266C130.16 91.4372 130.714 84.1494 131.978 76.9686C132.469 74.2526 132.883 71.0186 135.392 69.4146C138.678 67.3146 142.765 66.2326 146.492 65.1976C150.375 64.0734 154.323 63.192 158.315 62.5586C158.548 62.5326 158.496 62.1186 158.263 62.1446C154.641 62.5522 151.058 63.2616 147.553 64.2656C143.972 65.1906 134.853 67.5316 133.091 70.8116C131.291 74.0746 130.436 83.9696 130.168 87.7056C129.75 91.6579 129.655 95.6378 129.883 99.6056C126.534 105.932 118.083 115.996 110.04 121.493V121.467C110.023 121.401 109.99 121.341 109.946 121.29C109.901 121.239 109.845 121.2 109.782 121.175C109.719 121.15 109.651 121.14 109.583 121.146C109.516 121.152 109.451 121.173 109.393 121.209C106.987 122.398 104.503 123.459 102.123 124.753L53.5543 95.1076C61.4253 94.9836 67.3333 95.1206 72.9543 94.6676C73.0266 94.6582 73.093 94.6228 73.141 94.5681C73.1891 94.5133 73.2157 94.4429 73.2157 94.3701C73.2157 94.2972 73.1891 94.2268 73.141 94.1721C73.093 94.1173 73.0266 94.082 72.9543 94.0726C65.9953 93.7356 58.9543 93.9946 51.9473 94.1496L37.2813 85.1726C49.1273 97.6036 66.8113 112.873 87.0813 126.722C87.2623 125.922 87.4183 125.092 87.5733 124.29C87.5784 124.251 87.5912 124.213 87.6109 124.179C87.6306 124.145 87.6568 124.115 87.688 124.091C87.7193 124.067 87.7549 124.049 87.793 124.039C87.8311 124.029 87.8708 124.026 87.9098 124.031C87.9489 124.036 87.9866 124.049 88.0207 124.069C88.0548 124.088 88.0847 124.115 88.1087 124.146C88.1328 124.177 88.1504 124.213 88.1606 124.251C88.1708 124.289 88.1734 124.329 88.1683 124.368C88.0903 125.247 87.9873 126.127 87.9353 127.006C87.8733 127.626 87.6273 127.618 87.2623 127.472C78.5503 122.563 62.2303 109.415 54.1223 102.403C26.7633 78.7276 27.4003 72.1016 20.5163 67.8656C20.2639 66.8686 20.1595 65.8399 20.2063 64.8126C20.3873 62.3546 22.9483 60.4126 24.5523 58.8126C26.1823 57.1826 28.2783 55.6306 29.4943 53.6636C29.9312 53.0432 30.1368 52.2893 30.0752 51.5331C30.0136 50.7768 29.6888 50.0661 29.1573 49.5246C26.7073 47.3806 21.4253 50.9876 18.9123 53.0436C17.0162 54.6037 15.2512 56.3168 13.6353 58.1656C12.7153 59.1916 9.98731 61.7656 9.98731 63.6506C7.44231 57.5896 7.54131 58.5896 5.79631 55.2676C5.02031 53.7936 4.65831 51.8276 3.39031 50.6676C1.47631 48.8756 -0.0246922 51.4116 0.00030779 53.2476C0.0773078 57.2326 1.52631 61.2166 2.30031 65.0966C3.12331 69.1646 2.45231 73.4516 5.25031 74.8506C5.1357 75.0953 5.11179 75.3727 5.18287 75.6334C5.25394 75.894 5.41537 76.121 5.63831 76.2736L20.9303 87.0096C18.7423 83.3096 17.9243 82.1876 17.1793 80.2836C17.1023 80.0766 17.4383 79.8696 17.5673 80.0506C19.1603 82.0846 22.6483 88.1276 26.5963 94.0986C12.4263 93.9336 9.72231 93.5326 3.15731 93.6846C3.07164 93.6846 2.98949 93.7186 2.92891 93.7792C2.86834 93.8398 2.83431 93.9219 2.83431 94.0076C2.83431 94.0932 2.86834 94.1754 2.92891 94.236C2.98949 94.2966 3.07164 94.3306 3.15731 94.3306C8.38031 94.8536 13.5953 94.8536 27.2433 95.0816C36.7383 109.182 49.2073 125.79 62.4273 137.924C69.6917 144.775 78.9384 149.15 88.8423 150.424C92.818 150.93 96.8473 150.834 100.794 150.139C100.838 150.217 100.901 150.283 100.979 150.328C101.056 150.374 101.144 150.398 101.234 150.398C103.019 150.372 104.804 150.32 106.615 150.217C108.468 150.103 110.938 150.465 111.504 149.104C122.297 147.323 132.681 143.616 142.161 138.161C142.641 139.309 143.439 140.297 144.461 141.007C140.912 143.715 140.27 143.649 137.502 144.68C136.829 143.956 136.156 143.231 135.432 142.559C135.251 142.404 134.966 142.611 135.096 142.818C136.037 144.181 137.111 145.446 138.304 146.595C139.252 147.623 140.272 148.583 141.356 149.466C134.199 155.1 126.956 158.754 115.434 160.85C105.558 162.695 82.7533 164.08 76.0073 156.193C74.2213 154.123 73.2383 151.2 74.5073 148.613C74.6363 148.354 74.2483 148.095 74.0933 148.38C72.3733 151.729 71.6203 158.7 77.1723 162.893C83.8873 167.93 97.4723 168.303 105.656 167.705C105.656 168.24 105.929 170.305 106.044 171.534C106.095 171.948 106.744 171.974 106.716 171.534C106.751 170.226 106.665 168.919 106.458 167.628C108.058 167.498 109.64 167.317 111.218 167.11C111.171 168.552 111.391 169.99 111.865 171.353C111.965 171.612 112.382 171.586 112.356 171.276C112.304 169.827 112.097 168.43 112.072 166.981C118.132 166.09 124.071 164.51 129.772 162.272C133.183 160.913 142.619 157.359 143.172 153.684C143.362 152.519 143.371 151.332 143.198 150.165C143.162 149.889 143.036 149.633 142.84 149.437C142.643 149.24 142.388 149.114 142.112 149.078C140.696 147.59 139.918 147.243 137.972 145.12C140.637 144.706 143.017 143.05 145.113 141.42C149.487 144.094 155.645 143.32 160.48 140.981C164.068 139.073 167.313 136.581 170.08 133.607C172.884 131.032 175.339 128.101 177.38 124.889C179.55 121.432 181.386 117.776 182.864 113.972C182.89 113.908 182.898 113.839 182.89 113.771C182.881 113.703 182.854 113.638 182.813 113.584C184.277 112.853 185.664 111.977 186.952 110.97C189.583 108.949 190.041 105.896 190 102.688ZM163.586 86.1046C164.413 85.8426 164.817 85.7046 165.386 86.4566C165.955 87.2086 165.655 87.5786 165.086 88.2566C164.575 88.8522 163.861 89.2372 163.082 89.3375C162.303 89.4378 161.515 89.2461 160.869 88.7996C161.079 88.1695 161.435 87.5974 161.906 87.1294C162.377 86.6613 162.955 86.3103 163.586 86.1046ZM164.465 92.7786C166.494 91.6616 166.276 93.7246 165.241 93.8916C164.598 94.0648 163.916 94.0191 163.301 93.7616C163.627 93.3677 164.023 93.0349 164.465 92.7786ZM8.35731 70.1676C7.0893 71.2936 6.10525 72.7032 5.48531 74.2816C3.62331 73.1426 3.77831 70.5276 3.60031 68.5116C3.21631 64.3276 1.95131 60.3606 1.26931 56.5596C1.03631 55.2406 0.130307 52.0836 1.57931 51.0236C3.23531 49.8336 4.50231 54.3866 5.04631 55.4466C5.84631 56.9996 6.83131 58.4736 7.58131 60.0776C8.95231 62.9276 10.0133 65.9276 11.5133 68.7186C10.7433 68.5476 8.92231 69.6676 8.35731 70.1676ZM14.3573 71.1766C13.6815 70.2954 13.0514 69.3802 12.4693 68.4346C11.5342 67.1671 10.9455 65.6779 10.7613 64.1136C10.7353 62.0446 12.7793 60.2846 14.0733 58.8876C16.8245 55.6369 20.1257 52.8951 23.8263 50.7876C25.4043 49.9596 29.9313 48.6396 29.2333 52.1586C28.8453 54.1246 26.4133 55.7806 25.0683 57.0996C23.5636 58.4575 22.1464 59.9094 20.8253 61.4466C20.1584 62.3334 19.6984 63.3582 19.479 64.4459C19.2596 65.5336 19.2863 66.6566 19.5573 67.7326C18.0333 68.0206 15.7543 69.8826 14.3573 71.1766ZM109.588 125.299C107.295 125.506 105.103 126.338 103.25 127.705C103.193 126.778 103.046 125.86 102.81 124.963C104.931 124.109 107.001 123.152 109.096 122.246C109.254 123.228 109.433 124.264 109.588 125.299ZM103.3 128.528C104.032 128.034 104.792 127.584 105.577 127.182C107.913 126.112 109.465 126.243 109.69 126.018C110.36 130.343 110.757 134.707 110.881 139.083C110.205 139.083 110.668 139.725 102.602 140.92C103.152 136.813 103.385 132.67 103.3 128.528ZM110.674 148.474C110.074 149.587 107.207 149.274 106.094 149.328C104.646 149.406 103.198 149.457 101.748 149.483C102.195 146.892 102.454 144.272 102.524 141.645C105.39 141.717 108.239 141.179 110.881 140.066C110.929 141.218 110.87 148.101 110.674 148.474ZM142.262 153.623C142.009 155.445 138.701 157.213 137.191 157.995C133.92 159.682 130.541 161.152 127.076 162.395C113.1 167.354 89.9603 169.264 79.2923 163.223C75.1073 160.847 73.5023 157.703 73.6263 153.418C74.3524 155.708 75.8524 157.674 77.8693 158.98C82.4743 162.11 88.5023 162.705 93.9093 163.067C105.163 163.818 116.883 162.653 127.464 158.54C132.586 156.548 137.764 153.857 141.719 149.977C142.6 150.566 142.397 152.633 142.262 153.623ZM171.755 130.649C166.455 135.949 160.734 141.696 152.791 142.188C148.748 142.428 144.924 141.275 142.65 137.945C143.219 137.608 143.788 137.272 144.332 136.936C146.272 139.549 149.687 140.48 152.817 140.066C162.817 138.728 175.049 124.093 179.438 115.127C180.238 114.816 181.038 114.48 181.819 114.118C180.058 118.591 175.91 126.449 171.755 130.649Z" fill="#F8F8FF"/>
<path d="M144.826 115.985C144.757 115.922 144.671 115.882 144.579 115.868C144.487 115.855 144.393 115.868 144.309 115.908C143.248 116.555 141.463 117.331 140.92 118.547C140.399 120.007 140.3 121.585 140.635 123.1C140.642 123.138 140.659 123.174 140.684 123.203C140.709 123.233 140.742 123.255 140.778 123.268C140.815 123.282 140.855 123.285 140.893 123.278C140.931 123.271 140.967 123.254 140.997 123.229C141.16 123.31 142.318 123.184 143.843 123.359C144.569 123.544 145.32 123.614 146.068 123.566C146.508 123.436 146.844 122.919 147.154 122.608C147.827 121.936 148.474 121.289 149.146 120.616C149.192 120.573 149.228 120.521 149.253 120.463C149.279 120.405 149.291 120.343 149.291 120.28C149.291 120.217 149.279 120.154 149.253 120.096C149.228 120.039 149.192 119.987 149.146 119.944C147.626 118.714 146.183 117.391 144.826 115.985ZM146.973 121.444C146.414 122.023 146.042 122.66 145.189 122.557C143.868 122.375 142.536 122.297 141.204 122.324C141.461 118.724 141.289 118.606 144.438 116.865C145.564 118.112 146.783 119.271 148.086 120.332C147.724 120.694 147.342 121.062 146.973 121.444Z" fill="#F8F8FF"/>
<path d="M98.5429 95.0276C98.488 95.0276 98.4354 95.0494 98.3966 95.0882C98.3577 95.127 98.3359 95.1797 98.3359 95.2346C98.3359 95.2895 98.3577 95.3421 98.3966 95.3809C98.4354 95.4198 98.488 95.4416 98.5429 95.4416C107.986 95.6226 117.48 95.8816 126.923 95.6226C127.04 95.6226 127.152 95.5762 127.234 95.4937C127.317 95.4112 127.363 95.2993 127.363 95.1826C127.363 95.0659 127.317 94.954 127.234 94.8715C127.152 94.7889 127.04 94.7426 126.923 94.7426C117.48 94.5126 107.988 94.9136 98.5429 95.0276Z" fill="#F8F8FF"/>
<path d="M65.4537 26.2126C67.1097 24.9976 69.0237 23.0306 68.7137 20.5996C68.5183 19.4203 67.9327 18.3408 67.0508 17.534C66.1689 16.7271 65.0417 16.2396 63.8497 16.1496C61.6247 15.9936 58.8827 17.3396 58.1847 19.7976C57.9054 20.9919 58.0043 22.2435 58.4678 23.379C58.9313 24.5146 59.7364 25.4779 60.7717 26.1356C60.849 26.1896 60.9095 26.2643 60.9461 26.3512C60.9827 26.4381 60.994 26.5335 60.9787 26.6266L58.4167 41.9946C58.4043 42.1024 58.4142 42.2116 58.4458 42.3153C58.4774 42.4191 58.5302 42.5153 58.6006 42.5978C58.6711 42.6803 58.7579 42.7473 58.8554 42.7948C58.953 42.8423 59.0593 42.8691 59.1677 42.8736L68.3777 42.7186C68.4966 42.7211 68.6144 42.6964 68.7223 42.6464C68.8301 42.5964 68.9251 42.5224 69 42.43C69.0749 42.3377 69.1276 42.2295 69.1543 42.1136C69.1809 41.9978 69.1807 41.8773 69.1537 41.7616L65.3247 26.7566C65.2793 26.6651 65.2673 26.5606 65.2909 26.4613C65.3144 26.3619 65.3721 26.2739 65.4537 26.2126Z" fill="#F8F8FF"/>
<path d="M38.7296 51.5146C38.7556 51.8506 39.2726 51.8766 39.2726 51.5146C39.5966 41.0036 38.3526 27.4816 38.9366 8.15558C53.0876 8.20658 89.0226 7.74158 92.8516 7.53458C92.9309 7.53008 93.0055 7.4954 93.0601 7.43767C93.1146 7.37993 93.145 7.30351 93.145 7.22408C93.145 7.14465 93.1146 7.06823 93.0601 7.01049C93.0055 6.95276 92.9309 6.91808 92.8516 6.91358C85.9176 6.47358 78.9326 6.78358 71.9996 6.88758C64.6516 6.98758 42.3256 7.22358 38.4706 7.19758C38.343 7.20624 38.2228 7.26085 38.1324 7.35131C38.0419 7.44177 37.9873 7.56194 37.9786 7.68958C37.6476 18.9666 37.9186 41.3186 38.7296 51.5146Z" fill="#F8F8FF"/>
<path d="M143.3 54.9816C122.034 55.6286 100.794 55.6536 79.5278 55.8356C79.3732 54.0296 78.6362 52.3226 77.4278 50.9716C76.9423 50.5043 76.3282 50.193 75.6644 50.0777C75.0005 49.9624 74.3174 50.0484 73.7028 50.3246C72.0218 51.1006 71.2188 52.8596 70.5468 54.4896C70.4688 54.6966 70.7538 54.8776 70.8568 54.6706C71.5038 53.2706 72.2028 51.7216 73.6508 50.9706C75.7508 49.8836 77.5058 51.5656 78.1508 53.4536C78.4093 54.2329 78.6168 55.0283 78.7718 55.8346C63.8998 55.9726 48.5718 56.1146 39.4218 56.5846C39.1628 56.6106 39.1628 56.9986 39.4218 56.9986C52.5898 56.9466 65.7588 56.6616 78.9008 56.5846C79.1242 58.5762 79.4959 60.5483 80.0128 62.4846C80.0271 62.5326 80.0579 62.5741 80.0999 62.6015C80.1418 62.629 80.1921 62.6407 80.2419 62.6346C80.2916 62.6285 80.3376 62.6049 80.3716 62.5681C80.4057 62.5313 80.4256 62.4837 80.4278 62.4336C80.3433 60.4669 80.092 58.5108 79.6768 56.5866C79.6768 56.5866 136.231 56.0686 143.76 55.8616C143.875 55.8581 143.985 55.8107 144.066 55.7291C144.148 55.6475 144.195 55.5379 144.199 55.4226C144.121 39.4856 144.768 23.5496 144.07 7.61259C144.044 7.17259 143.345 7.14759 143.37 7.61259C143.636 23.4186 143.17 39.2006 143.3 54.9816Z" fill="#F8F8FF"/>
<path d="M87.626 9.39658C87.473 20.6626 87.226 44.2096 87.833 55.3966C87.8375 55.4759 87.8722 55.5505 87.9299 55.605C87.9877 55.6596 88.0641 55.6899 88.1435 55.6899C88.223 55.6899 88.2994 55.6596 88.3571 55.605C88.4149 55.5505 88.4495 55.4759 88.454 55.3966C88.598 44.7356 87.717 36.1156 87.988 9.39658C87.988 9.34857 87.969 9.30253 87.935 9.26859C87.9011 9.23465 87.855 9.21558 87.807 9.21558C87.759 9.21558 87.713 9.23465 87.679 9.26859C87.6451 9.30253 87.626 9.34857 87.626 9.39658Z" fill="#F8F8FF"/>
</g>
</svg>
